<svg width="375" height="124" viewBox="0 0 375 124" fill="none" xmlns="http://www.w3.org/2000/svg">
<path d="M430.425 100.43C428.568 93.2785 425.823 86.3812 422.251 79.895C421.029 77.6503 419.551 75.2924 416.486 73.8471C413.422 72.4017 409.574 72.2152 405.828 72.395C404.701 70.5567 403.621 68.705 402.453 66.8533C401.481 65.3347 400.53 63.8027 399.639 62.2441C399.187 61.4449 398.741 60.6389 398.289 59.8263C397.992 59.2468 397.668 57.9147 397.148 57.5017C398.3 58.4038 399.614 59.0818 401.022 59.4999C397.857 53.7651 395.123 48.9161 393.598 42.9348C394.382 43.8729 395.436 44.5536 396.622 44.8864C395.107 42.5196 394.011 39.9159 393.382 37.1866C393.507 37.5732 393.754 37.9105 394.087 38.1499C394.419 38.3893 394.82 38.5184 395.231 38.5188C392.531 32.4176 389.717 24.5313 389.669 23.6721C389.953 23.9331 390.303 24.1147 390.682 24.1983C389.866 23.4618 389.234 22.5503 388.832 21.534C389.359 21.9936 389.548 22.3999 390.135 22.3999C388.931 19.6407 388.138 16.7242 387.779 13.741C388.144 14.0541 388.245 14.1939 388.454 14.1939C387.488 12.1891 386.774 10.0753 386.328 7.89958C386.618 8.36583 386.666 8.0994 386.942 8.34584C386.065 6.64737 385.012 1.68515 385.012 0.0333034C384.735 2.39119 384.182 4.94889 382.838 7.01371C383.237 6.78324 383.571 6.45813 383.81 6.06789C382.352 12.582 382.143 18.0571 378.093 22.7929L379.578 22.3666C379.346 23.5417 378.91 24.6683 378.289 25.6969L379.781 25.0309C378.141 29.5402 377.202 31.5983 374.124 35.5681C375.124 35.2104 376.02 34.6184 376.737 33.843L373.821 39.0117C375.103 39.0117 375.65 38.5721 376.649 37.8727C374.894 42.8016 371.924 49.3157 369.042 53.6852C369.993 53.6456 370.904 53.2913 371.627 52.6794C371.143 53.9643 370.508 55.1892 369.737 56.3294C368.671 53.9293 367.81 51.445 367.165 48.9028C367.942 49.8615 369.001 50.5595 370.196 50.901C368.674 48.4487 367.577 45.7631 366.949 42.9548C367.076 43.3419 367.324 43.6794 367.658 43.9187C367.991 44.1581 368.393 44.287 368.806 44.2869C366.106 37.9926 363.284 29.8599 363.237 28.9673C363.519 29.2353 363.869 29.4239 364.249 29.5135C363.43 28.7414 362.798 27.7965 362.4 26.7493C362.926 27.2289 363.122 27.6485 363.703 27.6485C362.492 24.7831 361.701 21.7621 361.354 18.6766C361.711 19.0029 361.819 19.1428 362.029 19.1428C361.067 17.0598 360.363 14.8706 359.93 12.622C360.22 13.1082 360.267 12.8285 360.544 13.0816C359.666 11.3298 358.613 6.2344 358.613 4.50263C358.343 6.94044 357.783 9.57807 356.44 11.7095C356.842 11.466 357.177 11.13 357.419 10.7304C355.954 17.4577 355.745 23.0726 351.702 27.9882L353.18 27.5553C352.951 28.7733 352.515 29.9444 351.891 31.0188L353.389 30.3528C351.742 35.0152 350.811 37.1333 347.726 41.2297C348.734 40.8553 349.633 40.2423 350.345 39.4446L347.422 44.7731C348.705 44.7731 349.251 44.3202 350.25 43.6009C348.738 47.9306 346.911 52.1467 344.783 56.2162C343.48 52.1532 342.434 48.2234 342.448 47.7172C342.661 47.9442 342.931 48.1119 343.23 48.2034C342.612 47.5623 342.15 46.7899 341.881 45.9454C342.279 46.3451 342.407 46.6848 342.873 46.7181C342.077 44.4237 341.622 42.0276 341.523 39.6045C341.793 39.8842 341.874 39.9974 342.049 40.0108C341.389 38.3458 340.936 36.608 340.699 34.8354C340.909 35.2284 340.956 35.0152 341.172 35.235C340.481 33.0365 340.122 30.7496 340.105 28.4478C339.812 30.41 339.074 32.2816 337.945 33.9229C338.282 33.7611 338.572 33.5183 338.789 33.2169C337.223 38.3656 336.764 42.7217 333.2 46.3118L334.415 46.052C334.158 46.991 333.738 47.8788 333.173 48.6763L334.415 48.2367C332.829 51.7602 331.952 53.3588 329.238 56.3694C330.065 56.1388 330.822 55.7137 331.445 55.1305L328.793 59.1269C329.639 59.166 330.471 58.901 331.135 58.3809C329.64 61.7594 327.885 65.0194 325.883 68.1322C324.922 66.1919 324.097 64.189 323.413 62.1376C323.597 62.284 323.815 62.3824 324.048 62.424C323.546 62.0313 323.146 61.5268 322.88 60.952C323.211 61.2051 323.339 61.4315 323.703 61.4315C322.946 59.9308 322.444 58.3173 322.218 56.6558C322.441 56.829 322.509 56.9023 322.65 56.9023C322.042 55.8162 321.588 54.6531 321.3 53.4454C321.483 53.6985 321.51 53.5519 321.692 53.6852C321.029 52.2338 320.621 50.6821 320.484 49.0959C320.37 50.4669 319.905 51.787 319.134 52.9325C319.38 52.8117 319.593 52.6334 319.755 52.413C318.83 55.9964 318.695 58.9871 316.137 61.6114L317.075 61.3782C316.914 62.0488 316.623 62.6821 316.218 63.2432L317.163 62.8836C316.381 65.0347 315.164 67.0063 313.585 68.6784C314.202 68.4884 314.768 68.1628 315.239 67.7259L313.396 70.57C314.043 70.558 314.669 70.3382 315.178 69.9439C314.184 72.3421 312.99 74.6547 311.608 76.8577C310.911 75.649 310.31 74.3885 309.812 73.0877C310.003 73.2139 310.219 73.2959 310.447 73.3275C309.963 73.0207 309.562 72.6024 309.279 72.1086C309.61 72.3151 309.738 72.5016 310.102 72.5016C309.351 71.2762 308.847 69.9192 308.617 68.5052C308.847 68.6517 308.914 68.7117 309.049 68.7117C308.454 67.8256 307.999 66.8553 307.699 65.8343C307.882 66.0474 307.915 65.9275 308.091 66.0407C307.437 64.8635 307.022 63.5716 306.869 62.2375C306.739 63.4068 306.27 64.5144 305.519 65.4279C305.758 65.3343 305.971 65.1859 306.14 64.995C305.215 67.979 305.081 70.4634 302.522 72.6415L303.461 72.4483C303.302 73.0125 303.024 73.537 302.644 73.9869L303.589 73.6872C302.765 75.53 301.545 77.1735 300.011 78.5029C300.612 78.3537 301.175 78.0839 301.665 77.7103L299.822 80.0748C300.456 80.0708 301.076 79.8908 301.611 79.5553C300.862 81.0739 299.782 82.426 299.039 83.9313C298.513 85.0037 298.094 86.4491 296.711 86.8088L298.796 86.2692C298.215 86.9838 297.559 87.6357 296.839 88.2142C297.254 88.1867 297.656 88.0561 298.007 87.8345C297.46 88.6879 296.665 89.3587 295.725 89.7594C296.004 89.3898 296.156 88.9415 296.157 88.4806C295.719 89.0001 295.28 89.5263 294.807 90.0459C295.064 89.5396 295.159 88.9679 295.077 88.4073C294.948 88.7902 294.743 89.1439 294.474 89.448C294.205 89.7522 293.878 90.0006 293.511 90.1791C293.708 89.7848 293.803 89.3486 293.788 88.9093C293.773 88.47 293.648 88.0413 293.424 87.6613C293.32 88.5937 292.942 89.4758 292.337 90.1991C292.424 89.7785 292.445 89.347 292.398 88.9202C292.04 89.4264 291.675 89.9326 291.318 90.4455C291.197 89.9827 291.156 89.5031 291.196 89.0268C290.993 89.312 290.821 89.6179 290.683 89.9393L290.744 88.4273C290.406 88.7127 290.145 89.0761 289.983 89.4851C289.822 89.8941 289.766 90.3361 289.819 90.7719C289.286 89.9926 288.658 89.2199 288.199 88.4007C288.003 87.8075 287.74 87.2378 287.416 86.7022C287.644 86.9391 287.951 87.088 288.28 87.1218C287.772 86.3865 287.357 85.5924 287.045 84.7573C287.367 85.049 287.783 85.2209 288.219 85.2435C286.8 82.8302 285.641 80.2762 284.764 77.6237C285.106 77.9592 285.564 78.1564 286.046 78.1765L284.696 75.6854C285.015 76.0568 285.424 76.3431 285.884 76.518C284.717 74.9972 283.845 73.2764 283.312 71.4426L283.987 71.7556C283.705 71.2504 283.507 70.704 283.4 70.1371L284.075 70.3435C282.239 68.0523 282.145 65.4279 281.476 62.2908C281.585 62.4772 281.738 62.6349 281.922 62.7504C281.358 61.7218 281.022 60.5865 280.936 59.42C280.835 60.7867 280.537 62.1322 280.052 63.4164C280.18 63.2965 280.201 63.4164 280.336 63.2033C280.131 64.2462 279.807 65.2629 279.37 66.2339C279.472 66.2339 279.519 66.1673 279.681 66.0141C279.521 67.45 279.162 68.8574 278.614 70.197C278.878 70.197 278.965 70.0038 279.202 69.7774C279.024 70.2644 278.738 70.706 278.365 71.0695C278.537 71.026 278.696 70.9387 278.824 70.8164C278.133 73.249 277.288 75.636 276.293 77.9634C276.482 77.9603 276.666 77.8981 276.818 77.7856C276.969 77.6731 277.081 77.5162 277.136 77.3373C276.849 78.6411 276.352 79.8913 275.665 81.0406C276.203 80.8744 276.675 80.546 277.015 80.1014C276.34 82.9855 275.078 85.3168 273.64 88.0943C274.285 87.8876 274.883 87.5596 275.402 87.1285C275.165 87.3283 275.017 87.9677 274.882 88.2475C274.693 88.6404 274.49 89.0268 274.281 89.4131C273.86 90.3071 273.38 91.1726 272.843 92.0041C272.621 92.2467 272.377 92.4696 272.114 92.6702C272.054 92.7168 271.959 92.7501 271.912 92.6702C271.902 92.6353 271.902 92.5985 271.912 92.5636C271.912 92.2705 271.959 91.9841 271.979 91.6977C271.697 91.9577 271.439 92.2431 271.21 92.5503C270.952 92.857 270.594 93.0664 270.197 93.1431C270.251 92.6235 270.758 92.1706 270.643 91.6577C270.17 92.2839 269.671 92.8966 269.138 93.4761C269.07 93.5494 268.962 93.6293 268.881 93.5694C268.995 93.0014 269.045 92.4229 269.03 91.8442C268.757 92.47 268.35 93.0292 267.835 93.4828C267.902 93.1505 267.883 92.807 267.781 92.4837L266.978 93.8158C266.91 93.929 266.769 94.0556 266.661 93.9757C266.634 93.9476 266.614 93.9135 266.604 93.8764C266.593 93.8393 266.592 93.8003 266.6 93.7625C266.63 93.2232 266.732 92.6902 266.904 92.1773C266.57 92.8608 266.179 93.5158 265.736 94.1355C265.682 94.2154 265.614 94.2954 265.52 94.2954C265.425 94.2954 265.324 94.1555 265.297 94.0356C265.157 93.4106 265.1 92.7702 265.128 92.1306C264.85 92.8126 264.64 93.5198 264.501 94.2421C263.979 93.5113 263.667 92.6554 263.596 91.7643C263.475 92.6635 263.36 93.5694 263.245 94.4686C263.049 93.7645 262.935 93.0403 262.908 92.3105C262.665 93.1631 262.401 94.0023 262.111 94.8416C261.969 94.8815 261.895 94.675 261.895 94.5218C261.895 94.1089 261.895 93.6959 261.895 93.2763L260.97 94.8948C260.903 94.2076 260.937 93.5142 261.072 92.8367C260.781 93.1216 260.551 93.4612 260.396 93.8353C260.24 94.2094 260.163 94.6105 260.167 95.0147L259.121 93.1964C259.24 93.913 259.177 94.6475 258.939 95.3344C258.898 95.4477 258.837 95.5676 258.729 95.5809C258.621 95.5942 258.466 95.3877 258.459 95.2212C258.43 94.8431 258.476 94.4629 258.594 94.1022C257.922 94.5356 257.379 95.138 257.022 95.8473C256.995 95.3021 257.129 94.7609 257.406 94.2887C256.787 94.7585 256.276 95.3535 255.908 96.0338C255.834 95.4393 255.854 94.837 255.969 94.2487C255.377 94.6949 254.891 95.2632 254.545 95.9139C254.304 95.3937 254.132 94.8453 254.032 94.2821C253.919 94.9835 253.608 95.6392 253.134 96.1737C252.93 95.5392 252.953 94.8546 253.201 94.2354C252.717 94.6566 252.318 95.1653 252.027 95.7341C252.035 95.3025 252.094 94.8733 252.202 94.4552C251.662 94.9891 251.245 95.6322 250.981 96.3402C250.807 95.8901 250.763 95.4015 250.852 94.9281C250.592 95.3458 250.383 95.7931 250.231 96.2603L249.745 94.7616C249.755 95.0313 249.704 95.2998 249.595 95.5475C249.487 95.7952 249.323 96.0159 249.118 96.1937C249.168 95.8603 249.168 95.5213 249.118 95.1879L248.085 96.7998C247.964 96.7998 247.937 96.6199 247.95 96.5001L248.099 95.1679C247.7 95.6557 247.369 96.1932 247.113 96.7665C246.958 96.7265 246.911 96.5267 246.904 96.3668C246.873 95.9722 246.873 95.5759 246.904 95.1812C246.541 95.6438 246.248 96.1552 246.033 96.6999L245.21 94.9481C245.175 95.6287 244.993 96.2941 244.676 96.8997C244.521 96.8997 244.454 96.7065 244.433 96.5467C244.393 96.147 244.366 95.7407 244.366 95.3344L242.82 96.993C242.989 96.52 243.137 96.0405 243.272 95.5609C242.693 96.0424 242.186 96.6031 241.767 97.2261C241.794 96.6864 241.897 96.153 242.071 95.6408C241.52 96.115 241.106 96.7237 240.869 97.4059C240.752 96.696 240.548 96.0028 240.262 95.3411C240.217 95.7857 240.098 96.2199 239.911 96.6266C239.722 97.0347 239.385 97.3579 238.966 97.5325C239.047 97.1197 239.162 96.7142 239.31 96.3202L237.9 97.4992C237.902 97.0037 238.095 96.5277 238.44 96.167C237.961 96.4337 237.522 96.7656 237.137 97.1528C237.248 96.8594 237.296 96.5464 237.279 96.2336C237.268 96.0771 237.248 95.9214 237.218 95.7674C236.631 96.4934 236.037 97.2194 235.443 97.9388C235.443 97.4792 235.443 97.0263 235.443 96.5667C235.098 96.982 234.843 97.4625 234.693 97.9787C234.525 97.9787 234.518 97.7323 234.572 97.5724L235.098 95.9539C234.509 96.4672 234.071 97.1275 233.829 97.8655C233.609 97.4328 233.463 96.9668 233.397 96.4867C233.296 96.933 233.195 97.3793 233.1 97.8189C232.924 97.263 232.698 96.7236 232.425 96.207C232.409 96.8529 232.192 97.4782 231.804 97.9987C231.723 98.1053 231.555 98.2119 231.474 98.112L231.656 97.266C231.004 97.762 230.258 98.1243 229.462 98.3317C230.008 97.9866 230.393 97.4434 230.535 96.8198C229.898 97.4086 229.188 97.9165 228.423 98.3317C228.588 98.1323 228.711 97.9024 228.786 97.6553C228.86 97.4083 228.883 97.1491 228.855 96.893C228.347 97.5043 227.772 98.0583 227.14 98.5449C227.094 98.1443 227.205 97.7416 227.451 97.4192C227.061 97.7001 226.725 98.0474 226.459 98.445C226.527 97.9288 226.668 97.4244 226.877 96.9463C226.33 97.3831 225.834 97.8791 225.399 98.425C225.381 97.8182 225.574 97.2237 225.946 96.7398C225.358 97.1787 224.864 97.729 224.494 98.3584C224.475 97.7665 224.622 97.181 224.92 96.6666C224.245 97.0662 223.981 97.9255 223.462 98.5249C223.393 98.2414 223.395 97.9455 223.469 97.6632C223.544 97.381 223.687 97.1211 223.887 96.9064C223.39 97.2061 222.964 97.6082 222.638 98.0853C222.582 97.7113 222.499 97.3417 222.388 96.9796L221.443 98.4583C221.335 98.6248 221.146 98.8113 220.978 98.7114C220.933 98.678 220.896 98.6348 220.87 98.5852C220.844 98.5355 220.83 98.4808 220.829 98.425C220.829 98.2518 220.768 98.0786 220.741 97.9055C220.633 98.1919 220.519 98.4716 220.391 98.7514C220.266 98.54 220.186 98.3059 220.156 98.0631C220.126 97.8204 220.146 97.5741 220.215 97.3393C219.694 97.7154 219.294 98.2308 219.061 98.8246C218.906 98.4859 218.83 98.1172 218.838 97.7456C218.669 98.1253 218.494 98.5049 218.325 98.8913C218.055 98.6848 218.075 98.2851 218.123 97.9521C218.123 97.739 218.183 97.5191 218.217 97.286C217.617 97.6982 217.184 98.3071 216.995 99.0045C216.895 98.5925 216.914 98.161 217.049 97.7589C216.681 98.1082 216.391 98.5304 216.199 98.9978C216.114 98.4919 216.165 97.9727 216.347 97.4925C215.849 97.9439 215.528 98.5551 215.443 99.2176C215.329 98.6538 215.099 98.1189 214.768 97.6457C214.779 98.2451 214.554 98.8255 214.14 99.2643C214.093 99.3175 214.019 99.3775 213.951 99.3442C213.884 99.3109 213.897 99.1843 213.951 99.1044C214.052 98.8713 214.16 98.6448 214.268 98.4383L213.222 99.3109C213.276 99.002 213.383 98.7046 213.539 98.4317C213.122 98.7117 212.731 99.0283 212.372 99.3775C212.431 98.9265 212.632 98.505 212.945 98.1719C212.54 98.395 212.162 98.6631 211.818 98.9712C211.818 98.6714 211.818 98.3784 211.818 98.0853L210.313 99.211C210.232 99.2709 210.111 99.3242 210.057 99.2443C210.003 99.1643 210.057 99.1177 210.097 99.0644L210.772 98.0254C210.15 98.294 209.598 98.6996 209.159 99.211C209.148 98.8811 209.245 98.5565 209.436 98.2851C209.121 98.5953 208.834 98.9318 208.578 99.2909C208.606 98.796 208.558 98.2999 208.437 97.8189C208.224 98.3327 207.891 98.7894 207.465 99.151C207.436 99.1834 207.401 99.2096 207.361 99.2279C207.322 99.2463 207.279 99.2564 207.235 99.2576C207.439 98.8976 207.57 98.5016 207.62 98.092C207.065 98.4144 206.581 98.8423 206.196 99.3508C206.277 98.9083 206.44 98.484 206.675 98.0986C206.315 98.3102 205.978 98.5579 205.669 98.838C205.749 98.5472 205.785 98.2465 205.777 97.9454C205.435 98.5797 204.936 99.1182 204.326 99.5107C204.258 99.5507 204.164 99.5973 204.096 99.544C204.223 99.2434 204.327 98.934 204.407 98.6182C204 98.8458 203.628 99.1283 203.3 99.4574C203.257 99.517 203.202 99.5668 203.138 99.6036C203.074 99.6404 203.002 99.6632 202.929 99.6706C202.995 99.2689 203.172 98.8931 203.442 98.5849C203.061 98.764 202.728 99.0286 202.47 99.3575C202.389 99.4641 202.294 99.584 202.159 99.5973C202.129 99.1555 202.245 98.7159 202.49 98.3451C202.062 98.705 201.703 99.1382 201.43 99.6239C201.43 99.1377 201.396 98.6581 201.376 98.1719C201.223 98.6409 201.01 99.0886 200.742 99.504C200.724 98.9862 200.672 98.47 200.587 97.9587C200.236 98.5528 199.778 99.0788 199.237 99.5107C199.216 99.5327 199.191 99.5496 199.163 99.56C199.135 99.5705 199.104 99.5741 199.075 99.5706C198.987 99.5373 199.007 99.4041 199.041 99.3175C199.156 99.0578 199.27 98.798 199.378 98.5382C198.946 98.6848 198.703 99.1244 198.379 99.4374C198.339 99.4774 198.265 99.5173 198.224 99.4774C198.358 99.1102 198.516 98.752 198.697 98.405C198.213 98.7293 197.786 99.1299 197.434 99.5906C197.491 99.0227 197.727 98.4867 198.109 98.0587C197.623 98.3723 197.201 98.7747 196.867 99.2443C196.854 98.8909 196.813 98.5391 196.746 98.1919L195.693 99.4774C195.659 99.524 195.605 99.5773 195.544 99.5573C195.484 99.5373 195.484 99.4841 195.477 99.4308L195.355 98.8513C195.206 99.166 195.032 99.4689 194.836 99.7571L194.775 98.5316C194.523 99.1105 194.071 99.5825 193.499 99.8637C193.445 99.3447 193.566 98.8224 193.843 98.3784C193.353 98.6319 192.974 99.0536 192.777 99.564C192.73 99.6772 192.669 99.8171 192.547 99.8104C192.514 99.361 192.615 98.9117 192.838 98.5183C192.208 98.8335 191.707 99.3533 191.42 99.9903C191.344 99.9309 191.284 99.8533 191.246 99.7647C191.208 99.6762 191.194 99.5796 191.204 99.4841C191.222 99.2896 191.282 99.1012 191.38 98.9312C191.045 99.1164 190.788 99.4142 190.658 99.7705C190.658 99.8371 190.59 99.917 190.523 99.917C190.455 99.917 190.421 99.7771 190.442 99.6905C190.516 99.4108 190.583 99.131 190.658 98.8513C190.199 99.0778 190.111 99.6839 189.773 100.057C189.727 99.495 189.564 98.9486 189.294 98.4516C189.188 99.0769 188.9 99.658 188.464 100.123C188.414 99.8038 188.483 99.4771 188.66 99.2043C188.236 99.4094 187.896 99.7498 187.694 100.17C187.682 99.636 187.856 99.1138 188.187 98.6914C187.846 98.9484 187.525 99.2313 187.229 99.5373L187.06 99.7305C187.001 99.3916 186.924 99.0559 186.83 98.7247C186.548 99.1752 186.215 99.593 185.838 99.9703C185.771 100.037 185.683 100.104 185.595 100.077C185.555 100.06 185.519 100.032 185.494 99.9969C185.439 99.8955 185.406 99.784 185.397 99.6694C185.388 99.5548 185.402 99.4396 185.44 99.3308C185.44 99.191 185.487 99.0511 185.514 98.9112C185.088 99.2566 184.725 99.671 184.441 100.137C184.391 99.7134 184.468 99.2847 184.664 98.9046C184.251 99.2243 183.926 99.6411 183.719 100.117C183.644 100.117 183.617 100.024 183.611 99.9503C183.605 99.624 183.657 99.2993 183.766 98.9912C183.365 99.2717 183.057 99.6635 182.882 100.117C182.81 100.023 182.761 99.9143 182.736 99.7993C182.712 99.6842 182.713 99.5653 182.74 99.4507C182.791 99.2181 182.875 98.9938 182.99 98.7847C182.735 98.9039 182.523 99.0967 182.382 99.3375C182.248 99.5812 182.139 99.8379 182.058 100.103L181.471 98.8246C181.486 99.2168 181.4 99.6063 181.221 99.957C181.188 100.01 181.113 100.077 181.059 100.037C181.033 100.01 181.019 99.9741 181.019 99.937C181.069 99.5751 181.027 99.2067 180.897 98.8646C180.606 99.2392 180.288 99.5931 179.946 99.9237L180.108 99.1177L179.082 100.15C179.058 99.6888 179.193 99.2332 179.466 98.8579C179.122 99.1656 178.81 99.5071 178.535 99.877C178.423 99.572 178.283 99.2777 178.116 98.9978C177.806 99.3308 177.482 99.6639 177.151 99.9836C177.095 100.053 177.02 100.106 176.935 100.137C176.893 100.152 176.847 100.153 176.804 100.14C176.762 100.127 176.725 100.1 176.699 100.064C176.678 100.003 176.678 99.9375 176.699 99.877C176.746 99.6106 176.8 99.3508 176.847 99.0844C176.449 99.3371 176.12 99.6825 175.889 100.09C175.871 100.135 175.837 100.173 175.794 100.197C175.673 100.237 175.612 100.05 175.632 99.9303C175.686 99.6184 175.801 99.3197 175.97 99.0511C175.499 99.2998 175.101 99.6647 174.816 100.11C174.755 99.6969 174.802 99.2754 174.951 98.8846C174.412 99.2167 174.006 99.7227 173.803 100.317C173.674 100.131 173.595 99.9171 173.572 99.6935C173.55 99.4699 173.585 99.2443 173.675 99.0378C173.317 99.3876 173.059 99.824 172.926 100.303C172.811 100.303 172.743 100.183 172.723 100.07C172.649 99.6188 172.71 99.1557 172.899 98.7381C172.453 99.1097 172.132 99.607 171.981 100.163C171.832 99.6297 171.604 99.1203 171.306 98.6515C171.377 99.1602 171.297 99.6783 171.076 100.143C171.056 100.189 171.024 100.229 170.982 100.257C170.953 100.266 170.924 100.269 170.894 100.267C170.864 100.265 170.835 100.256 170.809 100.243C170.782 100.229 170.759 100.21 170.74 100.187C170.721 100.165 170.707 100.138 170.698 100.11C170.671 99.9917 170.671 99.8689 170.698 99.7505C170.711 99.6915 170.711 99.6304 170.697 99.5716C170.683 99.5128 170.656 99.4579 170.617 99.4108C170.388 99.7438 170.138 100.077 169.882 100.383C169.874 100.02 169.95 99.6604 170.104 99.3308C169.637 99.6149 169.238 99.9969 168.937 100.45C168.911 100.16 168.944 99.8671 169.036 99.5901C169.128 99.313 169.275 99.0572 169.47 98.838C169.079 99.1147 168.727 99.4417 168.424 99.8104C168.376 99.524 168.322 99.2376 168.248 98.9512L167.816 99.6839C167.777 99.7675 167.711 99.8356 167.627 99.877C167.452 99.937 167.29 99.7372 167.269 99.5507C167.274 99.3663 167.252 99.1822 167.202 99.0045C166.972 99.3773 166.812 99.7879 166.729 100.217C166.486 100.09 166.5 99.7505 166.554 99.4841L166.729 98.6448C166.142 98.8446 165.892 99.5107 165.724 100.103C165.55 99.5049 165.55 98.8704 165.724 98.2718C165.465 98.4962 165.261 98.7761 165.129 99.0902C164.997 99.4043 164.939 99.7441 164.961 100.084C164.704 99.529 164.365 99.015 163.955 98.5582C164.047 99.1538 163.905 99.7615 163.557 100.257C163.429 99.9442 163.374 99.6073 163.395 99.2709C162.979 99.4879 162.622 99.8009 162.356 100.183C162.298 100.016 162.276 99.8393 162.288 99.6632C162.301 99.4871 162.349 99.3153 162.43 99.1577C161.905 99.3219 161.445 99.6431 161.114 100.077C161.029 99.8471 161.007 99.5996 161.05 99.3588C161.092 99.1181 161.198 98.8926 161.357 98.7048C161.019 98.7919 160.717 98.9793 160.492 99.2413C160.266 99.5034 160.127 99.8277 160.094 100.17L159.075 98.758C159.178 99.1219 159.207 99.5019 159.163 99.877C158.962 99.4322 158.737 98.9986 158.488 98.5782C158.492 99.0154 158.383 99.4464 158.171 99.8304C158.147 99.2532 158.054 98.6809 157.894 98.1253C157.696 98.8115 157.249 99.4019 156.638 99.7838L157.246 98.9445C156.747 99.1917 156.27 99.4815 155.822 99.8104C156.058 99.4974 156.301 99.191 156.544 98.8846C156.122 99.1052 155.728 99.3734 155.369 99.6839V99.6506C155.471 99.3912 155.487 99.1071 155.417 98.838C154.775 99.0578 154.344 99.6772 153.709 99.917C153.635 99.917 153.527 99.957 153.493 99.8837C153.48 99.8448 153.48 99.8027 153.493 99.7638C153.648 99.3576 153.876 98.9829 154.168 98.6581C153.492 98.9268 152.855 99.2805 152.271 99.7105C152.377 99.2618 152.592 98.8455 152.899 98.4983C152.169 98.8101 151.5 99.2451 150.921 99.7838C151.095 99.2762 151.144 98.735 151.063 98.2052C150.701 98.8073 150.193 99.311 149.585 99.6706C149.687 99.3053 149.869 98.9666 150.118 98.6781C149.521 98.8902 148.955 99.1815 148.437 99.544L149.112 98.3651C148.475 98.6867 147.862 99.0517 147.276 99.4574C147.474 99.2433 147.611 98.9813 147.672 98.6982C147.734 98.415 147.718 98.1208 147.627 97.8455C147.292 98.5403 146.704 99.085 145.98 99.3708C146.112 98.8857 146.392 98.4529 146.784 98.1319C146.166 98.3744 145.616 98.7579 145.177 99.2509C145.25 98.8333 145.461 98.4514 145.778 98.1652C145.185 98.4714 144.635 98.8545 144.145 99.3042C144.131 99.0498 144.18 98.7959 144.287 98.564C144.393 98.3321 144.555 98.1291 144.759 97.9721C144.256 98.2646 143.801 98.6306 143.409 99.0578C143.463 98.6554 143.463 98.2478 143.409 97.8455C143.068 98.2445 142.656 98.5786 142.194 98.8313C142.295 98.5649 142.39 98.2984 142.484 98.032C142.004 98.2563 141.577 98.576 141.229 98.9712C141.288 98.5031 141.465 98.0569 141.742 97.6723C141.059 97.9317 140.489 98.4166 140.128 99.0444H140.081L139.987 97.4259C139.813 97.7868 139.547 98.0963 139.214 98.3231C138.881 98.55 138.493 98.6862 138.09 98.7181C138.497 98.2236 138.769 97.6342 138.88 97.0063L137.158 97.9721C136.976 98.0786 136.74 98.1852 136.558 98.0786C136.702 97.8058 136.905 97.5672 137.152 97.3793C136.354 97.6536 135.572 97.9716 134.81 98.3317C135.037 97.9016 135.32 97.5029 135.653 97.1461C135.096 97.3745 134.598 97.7227 134.195 98.1652C134.389 97.6807 134.441 97.152 134.344 96.6399C134.203 97.0036 133.978 97.3299 133.688 97.5934C133.397 97.8569 133.049 98.0504 132.67 98.1586C132.931 97.8314 133.157 97.4788 133.345 97.1062C132.835 97.5175 132.23 97.7968 131.583 97.9188C132.062 97.5845 132.434 97.1224 132.656 96.5866C132.117 97.0516 131.521 97.4477 130.881 97.7656C131.064 97.3365 131.202 96.8901 131.293 96.4335C131.157 96.6749 130.962 96.8787 130.726 97.0263L129.646 97.8455C129.629 97.6232 129.678 97.4008 129.787 97.2056C129.896 97.0104 130.06 96.8509 130.26 96.7465C129.799 96.931 129.367 97.18 128.978 97.4858C129.057 97.2726 129.073 97.0418 129.025 96.8198C128.803 97.099 128.534 97.338 128.228 97.5258C128.213 97.0352 128.344 96.5509 128.606 96.1337C128.098 96.3908 127.663 96.7713 127.344 97.2394C127.277 97.326 127.162 97.4392 127.074 97.366C126.986 97.2927 127.02 97.2327 127.04 97.1595C127.136 96.7163 127.269 96.2818 127.439 95.8606C126.764 96.0405 126.453 96.8398 125.799 97.0529C125.846 96.4618 126.025 95.8884 126.325 95.3744C125.674 95.7779 125.141 96.3428 124.779 97.0129C124.761 96.4726 124.623 95.9429 124.374 95.461C124.243 96.0515 123.932 96.5884 123.483 96.9996C123.343 96.1639 123.542 95.3073 124.037 94.6151C123.593 94.8048 123.197 95.0897 122.878 95.4491C122.559 95.8086 122.326 96.2336 122.194 96.6932C122.025 96.5733 122.046 96.3269 122.086 96.1271L122.268 95.2279C121.777 95.542 121.39 95.9912 121.155 96.5201C121.066 96.0458 121.041 95.562 121.08 95.0813C120.77 95.5449 120.366 95.9396 119.892 96.2403C119.832 96.2736 119.751 96.3069 119.703 96.2403C119.695 96.2121 119.695 96.1819 119.703 96.1537C119.712 95.9925 119.768 95.8374 119.865 95.7074L120.453 94.7683L118.664 96.0272C118.522 96.1271 118.32 96.2203 118.198 96.1004C118.388 95.9509 118.542 95.7615 118.648 95.5461C118.754 95.3306 118.81 95.0945 118.812 94.8549C118.441 95.3879 117.913 95.7967 117.3 96.0272C117.206 96.0605 117.071 96.0738 117.03 95.9872C117.019 95.9609 117.013 95.9325 117.013 95.9039C117.013 95.8753 117.019 95.847 117.03 95.8207C117.167 95.5092 117.339 95.2142 117.543 94.9415C117.008 95.2151 116.531 95.5883 116.14 96.0405H116.072C116.011 95.4913 116.145 94.9382 116.45 94.4752C116.06 94.7993 115.735 95.1924 115.492 95.6342C114.952 94.382 116.949 90.592 117.287 89.5263C117.434 89.238 117.51 88.9198 117.51 88.5972C117.51 88.2745 117.434 87.9563 117.287 87.668C116.97 87.2484 116.396 87.1418 115.937 86.9087C115.429 86.6282 115.008 86.2166 114.719 85.7178C114.43 85.2191 114.284 84.6522 114.297 84.0779C114.35 82.9219 114.8 81.8182 115.573 80.9474C115.965 81.4614 116.499 81.8523 117.111 82.073C117.262 81.6156 117.285 81.1263 117.177 80.6573C117.069 80.1882 116.834 79.7567 116.497 79.4087C116.382 79.3284 116.282 79.2293 116.2 79.1157C116.126 78.979 116.078 78.83 116.059 78.6761C115.941 78.0665 115.701 77.4863 115.354 76.9693C115.006 76.4523 114.557 76.009 114.034 75.6654C112.285 74.3999 109.984 74.1868 107.871 73.867C106.391 73.7085 104.926 73.4346 103.49 73.0478C100.662 72.1353 97.7868 72.002 95.9711 71.5158C95.6401 71.4448 95.3261 71.3113 95.0463 71.1228C94.8433 70.9443 94.6702 70.7353 94.5333 70.5034C94.1913 70.0227 93.9271 69.4924 93.7504 68.9315C93.4368 67.7274 93.5759 66.452 94.1418 65.3414C94.4118 64.9284 94.5738 64.9684 95.0868 64.9284C95.3813 64.8734 95.6563 64.7438 95.8847 64.5523C96.1131 64.3608 96.287 64.114 96.3895 63.836C96.6393 63.3032 96.7338 62.7104 96.9565 62.1576C95.7348 61.8711 94.5873 63.2299 93.3926 63.1966C93.7978 62.5953 94.3795 62.1305 95.0598 61.8645C97.0848 61.0985 99.6362 60.7055 101.6 59.7863C102.69 59.2481 103.591 58.3987 104.186 57.3485C105.293 57.1673 106.299 56.6058 107.027 55.7633C107.641 55.0972 108.688 53.8517 108.62 53.6385C108.553 53.4254 106.406 56.2295 104.57 56.5826C105.691 54.2047 105.691 51.587 105.421 51.6603C105.088 52.3541 104.861 53.0925 104.746 53.8517C104.404 55.6945 103.354 57.336 101.816 58.4342C101.622 58.5775 101.419 58.7087 101.209 58.8272C101.935 57.9394 102.401 56.8732 102.559 55.7433C102.775 54.2047 102.208 51.0808 102.026 51.1474C101.843 51.214 101.931 52.6794 101.931 53.8517C101.121 52.8925 100.581 50.8544 100.406 50.901C100.23 50.9476 100.291 51.5671 100.365 51.9467C100.414 52.1362 100.48 52.3212 100.561 52.4995C100.925 53.2907 101.378 54.0391 101.911 54.7309C101.911 55.2072 101.864 55.6825 101.769 56.1496C101.626 56.7005 101.422 57.2343 101.162 57.7415C100.838 58.4086 100.378 59.0026 99.8117 59.4866C98.7935 59.8461 97.7424 60.107 96.673 60.2659C97.2333 59.4866 97.5438 58.5741 97.1928 58.0479C97.0375 57.8214 97.0848 59.1736 95.5458 60.4591C95.15 60.5316 94.763 60.6455 94.3916 60.7988C93.5046 61.2201 92.7526 61.8746 92.2182 62.6904C92.0052 62.4943 91.7797 62.3119 91.5432 62.1442C91.1419 61.9172 90.6947 61.7808 90.2337 61.7446C90.2913 61.1412 90.241 60.5325 90.0852 59.9462C89.9871 59.6178 89.8536 59.3007 89.687 59.0004C89.633 57.0888 90.4429 56.0763 90.2337 56.1563C89.741 56.3494 89.3697 57.2353 89.2077 58.1545C88.7286 57.3699 88.3306 56.5398 88.0198 55.6767C88.0027 54.9459 88.1053 54.2172 88.3235 53.5186C88.494 52.9699 88.7084 52.4353 88.9647 51.9201C89.1865 51.5111 89.4392 51.1192 89.7207 50.7478C90.4304 50.5278 91.1103 50.2237 91.7457 49.8419C91.8948 49.7502 92.0369 49.6478 92.1709 49.5355C92.4139 49.3157 92.8459 48.8695 92.7581 48.7096C92.6704 48.5498 91.2192 49.8086 90.2337 50.0418C90.8044 49.3829 91.3127 48.6739 91.7524 47.9237C91.6917 47.7771 89.5655 49.8286 88.7757 51.1408C88.1918 52.1098 87.8151 53.1865 87.6688 54.3046C87.6283 54.0848 87.5945 53.865 87.5743 53.6385C87.4321 51.806 87.8357 49.9725 88.7352 48.3633C89.1241 47.7103 89.4409 47.0181 89.6802 46.2984C89.5857 46.0786 88.04 48.0102 87.1625 50.4414C86.528 49.0027 87.0073 45.7789 86.8588 45.9121C86.6041 46.7515 86.4633 47.6206 86.4403 48.4965C86.3621 49.3222 86.4704 50.1548 86.7575 50.9343C86.8048 51.0409 86.8588 51.1341 86.906 51.234C86.5315 52.4182 86.4734 53.6778 86.7373 54.8907C87.2233 56.7757 88.3235 58.6007 88.9377 60.4058C89.0728 60.8092 89.1323 61.2335 89.1132 61.658H88.9647C88.7685 61.666 88.5734 61.6248 88.3978 61.5381C88.2653 61.4407 88.151 61.3213 88.0603 61.1851C87.8035 60.8685 87.4846 60.6062 87.1228 60.414C86.7609 60.2217 86.3635 60.1034 85.9543 60.0661C85.9664 61.2559 86.4148 62.4011 87.2165 63.2899C87.3465 63.4098 87.4499 63.5549 87.5203 63.7161C87.5575 63.9419 87.527 64.1734 87.4325 64.3822C87.0502 65.5763 86.5435 66.7281 85.9206 67.8191C85.7731 68.0141 85.6801 68.2437 85.6506 68.4852C85.6597 68.6404 85.7135 68.7899 85.8055 68.9161C85.8976 69.0423 86.0241 69.14 86.1703 69.1979C86.4688 69.3043 86.7918 69.3251 87.1018 69.2578C87.2426 69.2346 87.3862 69.2346 87.527 69.2578C87.8713 69.3311 88.0332 69.7174 88.1277 70.0571C88.5415 71.5144 88.8016 73.0098 88.904 74.5198C88.9014 75.4622 89.0262 76.4008 89.2752 77.3106C89.8422 78.9225 91.2664 79.9749 92.3936 81.2338L92.4409 81.287C92.4409 81.6134 92.3869 81.9531 92.3396 82.2595V82.3927C92.1012 83.9317 91.7698 85.4553 91.3474 86.9553C91.0977 87.8745 90.7939 88.7803 90.5104 89.6862C90.188 90.7209 89.6051 91.6581 88.8162 92.4104L89.0997 90.9783C88.6957 91.4515 88.2433 91.8823 87.7498 92.2639C87.8963 91.6578 88.1426 91.0795 88.4787 90.5521C87.9001 90.99 87.3666 91.483 86.8858 92.0241C87.224 91.4847 87.3712 90.8498 87.3043 90.219C86.9149 90.9827 86.3223 91.6275 85.5898 92.084C86.0917 91.6215 86.424 91.0077 86.5348 90.3389C86.0404 91.165 85.2583 91.7853 84.3344 92.084C84.9184 91.6397 85.3362 91.0164 85.5223 90.3123C85.1601 90.9067 84.6167 91.3729 83.9699 91.6444C84.3438 91.1632 84.5434 90.5723 84.5368 89.9659C84.0036 90.7785 83.2274 91.6977 82.2622 91.5112C82.5275 90.9297 82.8557 90.3781 83.2409 89.866C82.463 90.1933 81.7376 90.6309 81.0877 91.1648C81.4059 90.5279 81.8433 89.9561 82.3769 89.4797C81.6504 89.755 81.0215 90.2343 80.568 90.8585L80.3925 89.0667C80.2861 89.6611 79.9497 90.1914 79.4542 90.5454C79.5593 90.1386 79.7401 89.7546 79.9875 89.4131C79.3844 89.6595 78.8329 90.0141 78.3608 90.4588C78.7252 90.0065 79.0546 89.5278 79.3462 89.0268C78.6413 89.2754 78.0151 89.7026 77.5305 90.2657C77.795 89.6927 78.0205 89.1031 78.2055 88.5006C77.5904 88.8465 77.0818 89.3507 76.7341 89.9593C76.5645 89.3345 76.3386 88.7259 76.0591 88.1409C76.0457 88.7817 75.8643 89.4082 75.5326 89.9593C75.392 89.074 75.5042 88.1675 75.8566 87.3416C75.0637 87.9297 74.4839 88.7542 74.2029 89.6928C74.0411 89.018 74.0204 88.3177 74.1421 87.6347C73.7205 88.1211 73.3953 88.6815 73.1836 89.2865C72.7417 88.7146 72.5194 88.0067 72.5559 87.2883C72.3117 87.8145 72.1719 88.382 72.1442 88.9602C71.8458 88.4729 71.7468 87.8917 71.8674 87.335C71.6545 87.8042 71.5156 88.3029 71.4557 88.8136C71.2407 88.5627 71.0864 88.2667 71.0046 87.9482C70.9227 87.6297 70.9154 87.297 70.9832 86.9753C70.6537 87.3666 70.408 87.8198 70.261 88.3074C69.775 87.9744 69.3633 87.4748 68.911 87.1018C68.4588 86.7288 68.3508 86.3292 68.4048 85.6365C68.4048 85.3367 68.4385 85.0304 68.4588 84.724C68.7693 85.2368 69.3768 86.2493 69.748 86.2559C69.991 86.2559 70.1665 85.9895 70.1732 85.743C70.1502 85.5002 70.1073 85.2597 70.045 85.0237C70.03 84.7156 70.0826 84.408 70.1991 84.1217C70.3156 83.8355 70.4932 83.5775 70.72 83.3652C71.152 82.9123 71.6649 82.5459 72.0699 82.033C73.0622 80.8141 73.0621 79.1623 73.3524 77.6969C73.8179 75.798 74.5255 73.9651 75.4583 72.2418C76.1595 70.7906 76.3541 69.1512 76.0118 67.5794C75.8498 66.8667 75.5866 66.1873 75.4246 65.4879C75.2729 64.7808 75.1714 64.0642 75.1209 63.3432C74.9859 61.9244 74.9319 60.4458 74.7901 58.9804C74.8576 58.6873 74.9319 58.3876 75.0264 58.1012C75.181 57.7035 75.3095 57.2963 75.4111 56.8823C75.4989 56.3306 75.4989 55.7688 75.4111 55.2171C75.3415 54.6467 75.2333 54.0815 75.0871 53.5253C75.7068 53.417 76.2919 53.1659 76.7948 52.7926C77.1319 52.5303 77.4033 52.1951 77.5882 51.8128C77.7732 51.4306 77.8666 51.0115 77.8613 50.5879C76.9636 51.254 75.7418 51.3339 74.6416 51.6603C74.7324 50.8429 75.0766 50.073 75.6271 49.4556C77.2336 47.7105 79.5285 46.0786 80.9864 44.2137C81.7801 43.1641 82.2384 41.9049 82.3027 40.5969C83.3125 39.8859 84.0308 38.8415 84.3276 37.6529C84.6111 36.7204 85.0026 34.9886 84.8136 34.7888C84.6246 34.589 83.9496 38.4122 82.3499 39.6444C82.2554 36.767 80.9324 34.196 80.7097 34.4025C80.5882 34.5157 80.9324 36.061 81.1754 36.8669C81.7651 38.8408 81.5645 40.9627 80.6152 42.7949C80.4941 43.0249 80.3588 43.2473 80.2102 43.461C80.469 42.2359 80.3826 40.9643 79.9605 39.7843C79.407 38.1657 77.2605 35.3949 77.1323 35.5348C77.0041 35.6747 77.8073 37.0867 78.4013 38.239C77.1188 37.6862 75.5393 35.9677 75.4178 36.0876C75.2963 36.2075 75.6541 36.8336 75.9038 37.1333C76.0472 37.2937 76.2029 37.4429 76.3696 37.5796C77.13 38.1779 77.9565 38.6896 78.8333 39.1049C79.068 39.5734 79.2599 40.0615 79.407 40.5636C79.5388 41.1746 79.6066 41.7973 79.6095 42.4219C79.6213 43.2377 79.4628 44.0471 79.1437 44.7998C78.3228 45.6538 77.4185 46.4257 76.4438 47.1044C76.6058 46.0653 76.4438 45.0196 75.8363 44.6732C75.5798 44.5334 76.3021 45.8322 75.4381 47.8437C75.0881 48.1125 74.7669 48.4161 74.4796 48.7496C73.8971 49.478 73.5095 50.3392 73.3524 51.254C72.5434 50.9644 71.6572 50.9644 70.8482 51.254H70.7875C70.6403 50.3379 70.2593 49.4738 69.6805 48.7429C69.3929 48.4054 69.0693 48.0995 68.7153 47.8304C67.858 45.8322 68.5803 44.5001 68.317 44.6599C67.7028 45.0063 67.5543 46.052 67.7095 47.0911C66.7376 46.409 65.8336 45.6373 65.0096 44.7865C64.6925 44.0334 64.5363 43.2239 64.5506 42.4086C64.55 41.7838 64.6179 41.1607 64.7531 40.5503C64.9002 40.0482 65.0922 39.5601 65.3269 39.0916C66.2024 38.6778 67.0268 38.166 67.7838 37.5663C67.9542 37.4314 68.1123 37.2821 68.2563 37.12C68.506 36.8203 68.8705 36.2075 68.7423 36.0743C68.614 35.9411 67.0346 37.6729 65.7588 38.219C66.3528 37.0734 67.1493 35.6413 67.0278 35.5548C66.9063 35.4682 64.7531 38.1857 64.1929 39.8043C63.7764 40.9856 63.6924 42.2563 63.9499 43.481C63.8013 43.2673 63.666 43.0449 63.5449 42.8149C62.5915 40.9838 62.3908 38.8604 62.9847 36.8869C63.2277 36.081 63.5719 34.5357 63.4504 34.4224C63.2209 34.216 61.9047 36.787 61.8102 39.6644C60.2105 38.4322 59.5085 34.6422 59.3465 34.8088C59.1845 34.9753 59.549 36.7404 59.8325 37.6729C60.1285 38.8512 60.8389 39.8874 61.8372 40.5969C61.894 41.9175 62.3501 43.191 63.1467 44.2536C64.6114 46.1186 66.9063 47.7505 68.5128 49.4956C68.9492 49.985 69.2513 50.5767 69.3903 51.214C68.9583 51.1008 68.5128 51.0342 68.074 50.921C67.4401 50.8019 66.8783 50.4435 66.5081 49.9219C66.4507 50.4178 66.5071 50.9201 66.673 51.3917C66.8389 51.8632 67.1101 52.2919 67.4665 52.6461C67.8279 53.0016 68.2508 53.2903 68.7153 53.4987C68.6609 53.7872 68.6226 54.0785 68.6005 54.3712C68.4303 56.3533 68.0271 58.3091 67.3991 60.1993C67.2851 60.6091 67.1291 61.0064 66.9333 61.3849C65.9748 63.0834 63.6867 63.5763 61.9654 64.1558L57.6118 65.6278C55.5464 66.2938 53.3189 67.1397 52.1512 68.9581C51.6652 69.7174 51.3547 70.6566 50.5853 71.1295C50.9554 71.3251 51.3713 71.4207 51.7909 71.4067C52.2105 71.3926 52.6189 71.2694 52.9747 71.0496C52.6709 71.2427 53.3392 73.2143 53.3999 73.5207C53.6056 74.3435 53.674 75.1939 53.6024 76.0384C53.5049 76.642 53.2894 77.2211 52.9679 77.7436C52.4346 78.6676 51.7157 79.4745 50.8552 80.1148C50.4842 80.3304 50.1895 80.6537 50.0115 81.0406C49.9743 81.2477 49.9743 81.4596 50.0115 81.6667C50.0723 82.4327 50.16 83.212 50.2883 83.9713C50.3789 84.2758 50.4064 84.5952 50.3693 84.9105C50.3018 85.2035 49.836 85.8097 49.8428 85.1569C49.8726 84.9872 49.8726 84.8137 49.8428 84.644L49.2893 85.6365C49.2893 85.0903 49.2893 84.5441 49.2893 83.9979C49.2412 84.3174 49.1154 84.6207 48.9227 84.8817C48.7299 85.1427 48.4758 85.3537 48.1823 85.4966C48.4553 85.0601 48.5806 84.5493 48.5401 84.0379C48.3954 84.5896 48.0429 85.066 47.5546 85.37C47.8815 84.8492 47.9881 84.2226 47.8516 83.6249C47.3917 84.251 46.828 84.7959 46.1844 85.2368C46.3599 84.7173 46.5286 84.1978 46.6839 83.6716C46.0817 84.0805 45.5563 84.5899 45.1314 85.1769C45.0864 84.5711 45.1504 83.9623 45.3204 83.3785C44.6746 83.8542 44.1823 84.5043 43.9029 85.2502C43.5654 84.6907 43.228 84.1445 42.8702 83.5983C43.1267 83.5983 43.3832 83.5983 43.6397 83.5583C41.419 81.2138 36.3836 73.8204 35.3577 71.709C35.6968 72.0025 36.1229 72.1801 36.5726 72.2152C35.8662 71.3396 35.2827 70.374 34.8379 69.3444C35.3105 69.7072 35.8866 69.9145 36.4849 69.9372C34.5175 67.0469 32.8893 63.9453 31.6317 60.6922C32.1374 61.1114 32.7736 61.3466 33.434 61.3583C32.813 60.3503 32.1942 59.3445 31.5778 58.341C32.0477 58.7999 32.618 59.1463 33.2449 59.3534C31.6402 57.5555 30.4128 55.4614 29.6338 53.1923L30.5855 53.5786C30.1908 52.9671 29.9118 52.2901 29.762 51.5804L30.707 51.8268C28.1286 49.0427 28.0071 45.8322 27.0621 42.0556C27.219 42.2882 27.4325 42.4783 27.6831 42.6084C26.9196 41.3953 26.457 40.0215 26.3331 38.5987C26.1877 40.2721 25.7707 41.9116 25.0979 43.4543C25.2802 43.3145 25.3072 43.4543 25.4894 43.1946C25.2067 44.4738 24.7528 45.7102 24.1394 46.8713C24.2812 46.8713 24.3487 46.7913 24.5782 46.6048C24.3559 48.3668 23.8501 50.0824 23.0797 51.6869C23.451 51.6869 23.5792 51.4472 23.91 51.1741C23.6512 51.7812 23.2484 52.318 22.7355 52.7393C22.9721 52.6925 23.1927 52.587 23.3767 52.4329C23.3767 52.9392 21.5475 57.5417 19.8263 61.0918C20.0782 61.0993 20.3263 61.0305 20.5375 60.8948C20.7486 60.7591 20.9126 60.5629 21.0075 60.3325C20.5985 61.9415 19.8988 63.4645 18.9421 64.8285C19.6851 64.6444 20.3566 64.2482 20.8725 63.6895C20.3743 65.4214 19.6957 67.0977 18.8476 68.6917C18.0309 67.0598 17.3964 65.6811 17.0859 64.8751C17.4171 65.2471 17.8766 65.4845 18.3751 65.5412C17.6076 64.3067 16.9892 62.9878 16.5324 61.6114C16.9917 62.0921 17.6191 62.3826 18.2873 62.424C16.1546 58.3806 14.4252 54.1423 13.1237 49.7687C13.3645 50.0398 13.6586 50.2599 13.9881 50.4156C14.3176 50.5713 14.6757 50.6594 15.0407 50.6745C14.3657 49.3024 13.6907 47.9237 13.063 46.5449C13.5237 47.1484 14.1354 47.6235 14.8382 47.9237C12.7457 44.7532 12.1383 43.1013 10.9975 39.4979L12.01 40.0241C11.5856 39.1837 11.2899 38.2858 11.1325 37.3598L12.145 37.6995C9.39783 33.8896 9.25609 29.5402 8.26387 24.3248C8.42122 24.6295 8.65324 24.8905 8.93885 25.0842C8.08284 23.3366 7.5829 21.4402 7.46739 19.5025C7.3197 21.7692 6.87734 24.0078 6.15117 26.1632C6.34016 25.9634 6.37392 26.1632 6.56966 25.8035C6.2712 27.528 5.78697 29.216 5.1252 30.839C5.28045 30.839 5.34795 30.7258 5.59094 30.4727C5.36149 32.8479 4.82619 35.1847 3.99798 37.4264C4.39622 37.4264 4.52446 37.1 4.88221 36.7603C4.62056 37.5522 4.19278 38.2807 3.62674 38.8984C3.88719 38.8239 4.12111 38.6784 4.30172 38.4788C4.26797 39.1449 2.35102 45.4725 0.52182 50.3548C0.823685 50.3354 1.1102 50.2165 1.33542 50.0173C1.56063 49.818 1.71149 49.5498 1.76379 49.2558C1.34475 51.4039 0.603096 53.4783 -0.436653 55.4103C0.389458 55.1171 1.09896 54.5709 1.58829 53.8517C1.11827 55.9638 0.477222 58.0352 -0.328659 60.0461C-0.922642 58.7939 -1.38838 57.7548 -1.67862 57.0488C-1.27477 57.5383 -0.693836 57.8536 -0.0586662 57.928C-1.02221 56.374 -1.80132 54.7156 -2.3806 52.9858C-1.79233 53.6013 -0.988697 53.9728 -0.132912 54.0248C-2.8128 48.9377 -4.98738 43.6065 -6.62624 38.1058C-5.76901 38.8118 -5.27627 39.2248 -4.21655 39.2514C-5.04453 37.5197 -5.87251 35.7879 -6.70049 34.0561C-6.1199 34.8131 -5.35326 35.4114 -4.47305 35.7945C-7.09872 31.7981 -7.89521 29.7267 -9.29917 25.1907L-8.02345 25.8568C-8.56395 24.7907 -8.93721 23.6499 -9.13042 22.4732L-7.86146 22.8995C-11.2971 18.1038 -11.4794 12.622 -12.7281 6.06789C-12.5366 6.44903 -12.2511 6.77656 -11.8979 7.02037C-12.973 4.82188 -13.6013 2.43685 -13.7473 0C-13.9372 2.84647 -14.4929 5.65759 -15.401 8.36582C-15.158 8.11938 -15.1243 8.36583 -14.8745 7.9129C-15.2513 10.0817 -15.8599 12.205 -16.6902 14.2472C-16.5012 14.2472 -16.4135 14.1073 -16.103 13.7876C-16.4055 16.7748 -17.0857 19.7128 -18.1279 22.5331C-17.6352 22.5331 -17.453 22.1201 -17.021 21.6606C-17.3498 22.6478 -17.8857 23.5556 -18.5937 24.3248C-18.2465 24.2509 -17.9294 24.0771 -17.6824 23.8253C-17.7229 24.6978 -20.1259 32.6241 -22.4073 38.7652C-22.0336 38.7412 -21.6778 38.5984 -21.3931 38.3583C-21.1084 38.1182 -20.9101 37.7936 -20.8279 37.4331C-21.3523 40.1373 -22.2852 42.7485 -23.5953 45.1795C-22.5641 44.8227 -21.675 44.1507 -21.0574 43.2612C-22.3601 49.2558 -24.6955 54.1581 -27.3954 59.9129C-26.1666 59.48 -25.0426 58.7995 -24.0948 57.9147C-24.5335 58.3343 -24.8103 59.6731 -25.0668 60.2593C-25.4245 61.0719 -25.8025 61.8845 -26.1872 62.6904C-26.95 64.2557 -27.7599 65.7943 -28.5902 67.3529C-30.2169 70.3435 -31.5938 73.3475 -33.315 76.2849C-32.7962 75.8655 -32.2353 75.4994 -31.6411 75.1925C-32.0757 76.5025 -32.6199 77.7746 -33.2678 78.9958C-36.7034 79.1157 -40.2673 79.2755 -44 79.4887C-42.7648 94.9548 -41.9751 104.5 -40.7196 119.966L-19.7951 123.036C87.1288 130.17 361.104 127.219 390.466 126.047C406.902 125.381 425.869 122.05 430.445 112.119C432.105 108.369 431.424 104.333 430.425 100.43ZM68.9785 76.6579C69.1761 76.0393 69.4576 75.4501 69.8155 74.9061H70.0517C70.396 74.9727 70.4365 75.1592 70.531 75.4789C70.7198 76.2284 70.8151 76.9979 70.8145 77.7702C70.8145 78.5229 70.8752 79.2822 70.909 80.0348C70.9265 80.2574 70.9151 80.4812 70.8752 80.7009C70.8045 80.9577 70.6904 81.2009 70.5377 81.4203C70.1563 82.0141 69.7029 82.5598 69.1878 83.0455C68.9583 83.252 68.722 83.4584 68.5128 83.7115C68.5533 82.4793 68.4723 78.3563 68.9785 76.6579ZM-22.2386 77.7302V77.8368C-22.2993 77.6903 -22.3601 77.5504 -22.4276 77.4039L-22.1643 77.284C-22.1991 77.4309 -22.2239 77.58 -22.2386 77.7302ZM-20.3081 78.05C-20.3784 78.0049 -20.446 77.956 -20.5106 77.9034L-20.3756 77.8302L-20.2879 77.9167C-20.2913 77.9616 -20.2981 78.0061 -20.3081 78.05ZM39.0903 83.192C39.0903 83.192 39.0903 83.1454 39.0903 83.1321H39.178L39.0903 83.192ZM41.6147 84.1911C41.5419 84.263 41.451 84.3144 41.3514 84.3402C41.2517 84.3659 41.1469 84.3651 41.0477 84.3376C40.9378 84.215 40.866 84.0638 40.8409 83.902C40.8158 83.7401 40.8384 83.5746 40.906 83.4251C41.1692 83.4651 41.4392 83.4984 41.7092 83.525C41.7092 83.6116 41.7092 83.6916 41.7092 83.7715C41.7191 83.8454 41.714 83.9206 41.6943 83.9926C41.6746 84.0646 41.6407 84.1321 41.5945 84.1911H41.6147ZM58.0168 86.7821C58.0168 86.8487 57.9831 86.922 57.9628 86.9886L57.4161 85.5099C57.1978 85.8052 57.0249 86.1306 56.9031 86.4757C56.9841 85.8097 57.0583 85.077 57.1326 84.3776C57.1125 84.7071 57.0078 85.026 56.8283 85.3045C56.6488 85.583 56.4005 85.8119 56.1066 85.9695C56.4541 85.5267 56.713 85.0226 56.8693 84.4842C56.2634 85.1047 55.5835 85.6504 54.8444 86.1094C55.0604 85.8867 55.2262 85.6214 55.3309 85.331C55.4356 85.0405 55.4768 84.7315 55.4519 84.4242C55.1769 85.0147 54.7455 85.5209 54.2032 85.8896C54.4077 85.4362 54.4711 84.9332 54.3854 84.4442L53.7712 85.47V84.6307L53.1974 85.2968L53.0962 84.4775C53.0298 84.7452 52.9324 85.0044 52.8059 85.2502C52.8059 85.3034 52.7384 85.3567 52.6844 85.3634C52.662 85.3643 52.6396 85.3607 52.6187 85.3527C52.5978 85.3446 52.5788 85.3324 52.563 85.3168C51.5707 84.6041 51.672 83.3652 51.7125 82.2462C51.7584 81.9819 51.8682 81.7325 52.0328 81.5191C52.1973 81.3058 52.4116 81.1347 52.6574 81.0206C53.1827 80.6772 53.6732 80.2846 54.1222 79.8483C54.5747 79.3794 55.0524 78.9348 55.5531 78.5162C55.9844 78.2021 56.4353 77.9151 56.9031 77.657L56.9773 77.6103C56.7177 78.3196 56.3636 78.9915 55.9244 79.6086C55.7572 79.7959 55.6493 80.0275 55.6139 80.2746C55.6465 80.5226 55.7548 80.7549 55.9244 80.9407C56.4565 81.6715 56.8877 82.4689 57.2068 83.3119C57.6793 84.4242 58.2463 85.5632 57.9966 86.7821H58.0168ZM63.5247 87.3949V87.4415C63.5042 86.8863 63.5587 86.3308 63.6867 85.7897C63.2962 86.2414 62.9899 86.7578 62.7822 87.315C62.6992 87.1732 62.6556 87.0124 62.6556 86.8487C62.6556 86.685 62.6992 86.5242 62.7822 86.3825C62.9422 86.0977 63.0367 85.7816 63.0589 85.4566C62.5316 85.932 62.1287 86.5261 61.8845 87.1884C61.7928 86.6815 61.5426 86.2157 61.169 85.8563C61.3103 86.2943 61.2838 86.7683 61.0947 87.1884C60.9307 86.7375 60.6005 86.3641 60.17 86.1427C59.2993 85.7097 59.2993 84.8106 59.1238 83.938C58.9896 83.3397 58.8251 82.7484 58.631 82.1663C58.5256 81.9333 58.4683 81.682 58.4625 81.4269C58.4567 81.1719 58.5025 80.9183 58.5973 80.6809C58.7712 80.4331 59.0026 80.2298 59.2723 80.0881C60.8922 79.0491 62.5392 77.9101 63.5044 76.2582C63.6624 75.9708 63.8044 75.6751 63.9296 75.3724C64.3177 75.5008 64.6631 75.731 64.9286 76.0384C65.1174 76.3019 65.2547 76.5978 65.3336 76.911C65.8985 78.756 66.3005 80.6458 66.5351 82.5592C66.7443 84.2377 67.1156 85.6764 66.6768 87.3882C66.6768 87.5081 66.5756 87.6547 66.4473 87.6413C66.3191 87.628 66.2853 87.4881 66.2651 87.3749C66.1908 86.8543 66.1705 86.3276 66.2043 85.803C65.7458 86.2596 65.4215 86.8306 65.2661 87.4548C65.3336 86.8687 65.4079 86.2826 65.4754 85.6964C65.0913 86.2009 64.8136 86.7761 64.6586 87.3882C64.5151 86.6077 64.2889 85.8442 63.9837 85.1103C64.0795 85.903 63.9113 86.7049 63.5044 87.3949H63.5247ZM98.1647 85.5166C98.32 84.4109 98.8397 83.1987 99.9197 82.8523C100.494 82.7336 101.089 82.7518 101.654 82.9056C104.091 83.3785 105.286 83.8447 107.277 84.3177C107.602 85.3538 108.179 86.2958 108.958 87.0619C109.43 87.5881 109.923 88.1076 110.422 88.6138C110.592 88.7574 110.718 88.944 110.787 89.1533C110.814 89.283 110.814 89.4167 110.787 89.5463C110.557 90.6253 109.7 91.3847 109.187 92.3238C108.674 93.263 107.513 93.9357 106.967 94.9215C107.217 94.4685 107.39 93.9779 107.479 93.4695C107.02 93.9315 106.607 94.4355 106.244 94.9748C106.339 94.4419 106.44 93.9024 106.541 93.3695C106.052 93.8208 105.65 94.3556 105.353 94.9481C105.386 94.2163 105.529 93.4933 105.779 92.8034C105.268 93.1647 104.842 93.6304 104.53 94.1688C104.645 93.6959 104.766 93.2297 104.881 92.7568C104.334 93.2457 103.877 93.8249 103.531 94.4686C103.821 93.9538 103.968 93.3723 103.956 92.7834C103.676 93.5336 103.113 94.1473 102.383 94.4952C102.933 93.9792 103.31 93.3099 103.463 92.5769C102.942 93.393 102.181 94.0339 101.283 94.4153L102.464 92.3371C101.859 92.7773 101.294 93.2699 100.777 93.8091C101.013 93.3562 101.222 92.89 101.411 92.4171L100.102 94.0156C100.095 93.4624 100.177 92.9115 100.345 92.3838C100.07 92.9117 99.6861 93.3769 99.2177 93.7492C99.1453 93.4805 99.1332 93.1995 99.1821 92.9257C99.2311 92.6519 99.34 92.3919 99.5012 92.164C99.0564 92.4744 98.725 92.9183 98.5562 93.4295C98.3059 92.1318 98.1771 90.814 98.1715 89.493C98.0326 88.1778 98.0326 86.8518 98.1715 85.5366L98.1647 85.5166ZM92.9336 88.041C93.2171 87.4149 93.5276 86.8021 93.8516 86.196C93.9664 85.9695 94.9518 84.5574 94.8708 84.3976C95.0328 84.6968 95.1748 85.006 95.2961 85.3234C96.157 87.5557 96.5807 89.9289 96.5448 92.3171C96.5482 92.5461 96.5022 92.7732 96.4098 92.9832C96.3499 93.0953 96.2645 93.1921 96.1602 93.2661C96.056 93.34 95.9358 93.3891 95.8091 93.4095C96.0138 92.9298 96.0633 92.3994 95.9508 91.8909C95.7141 92.4211 95.4078 92.9182 95.0396 93.3695C95.0971 92.685 95.0699 91.9961 94.9586 91.318C94.848 91.9964 94.5436 92.6295 94.0811 93.1431C94.1046 92.4931 94.2205 91.8496 94.4253 91.2315C93.9314 91.7095 93.5551 92.2928 93.3251 92.9366C93.3994 92.4171 93.4736 91.8975 93.5411 91.378C93.3167 91.5754 93.1343 91.8148 93.0045 92.0824C92.8748 92.35 92.8002 92.6403 92.7851 92.9366C92.5361 92.5483 92.3728 92.1125 92.3059 91.6577C92.1502 92.0608 92.0902 92.4937 92.1304 92.9233C91.0774 91.4846 92.2924 89.453 92.9404 88.061L92.9336 88.041ZM115.262 90.9051C115.128 91.9177 114.902 92.9164 114.587 93.8891C114.439 94.3553 114.466 94.6417 114.007 94.8815C114.007 94.8349 114.047 94.7816 114.074 94.7283C113.865 94.8401 113.663 94.9624 113.467 95.0947C113.265 95.1569 113.066 95.2303 112.873 95.3145C112.961 95.0181 113.101 94.7388 113.284 94.4885C112.724 94.8089 112.259 95.2681 111.934 95.8207C112.043 95.2357 112.029 94.6351 111.894 94.0556C111.809 94.4691 111.601 94.8483 111.297 95.1448C110.993 95.4414 110.606 95.6419 110.186 95.7208C110.382 95.3278 110.915 95.1346 111.03 94.7083C110.44 95.055 109.786 95.2814 109.106 95.3744C109.361 94.994 109.686 94.6641 110.065 94.4019C109.56 94.5809 109.078 94.8155 108.627 95.1013C109.341 94.3348 109.998 93.5178 110.591 92.6568C111.182 91.9129 111.862 91.242 112.616 90.6586C112.768 90.5612 112.897 90.4331 112.995 90.2826C113.093 90.1322 113.157 89.9629 113.183 89.7861C113.169 89.6032 113.113 89.4258 113.021 89.2666C112.805 88.827 112.589 88.3807 112.387 87.9344C112.953 88.379 113.559 88.7735 114.196 89.1134C114.658 89.2943 115.043 89.6288 115.282 90.0592C115.351 90.3435 115.354 90.6397 115.289 90.9251L115.262 90.9051ZM326.018 70.4168C326.018 70.3236 325.964 70.2303 325.931 70.1371L326.126 70.0238L326.194 70.0704C326.133 70.197 326.079 70.3102 326.018 70.4168ZM344.857 59.8263C344.817 59.6331 344.776 59.44 344.742 59.2468L344.81 59.2002C344.866 59.2932 344.934 59.3784 345.012 59.4533L344.857 59.8263ZM370.358 57.6616L370.142 57.182C370.392 57.0541 370.62 56.8877 370.817 56.6891C370.702 56.9622 370.547 57.2952 370.358 57.6616Z" fill="url(#paint0_linear_583_1575)"/>
<defs>
<linearGradient id="paint0_linear_583_1575" x1="193.715" y1="127.599" x2="193.715" y2="-0.0333055" gradientUnits="userSpaceOnUse">
<stop offset="0.05" stop-color="#569242"/>
<stop offset="0.39" stop-color="#B0D3A4"/>
<stop offset="0.99" stop-color="#C1E8B4"/>
</linearGradient>
</defs>
</svg>
