<svg width="375" height="160" viewBox="0 0 375 160" fill="none" xmlns="http://www.w3.org/2000/svg">
<g clip-path="url(#clip0_583_13861)">
<path d="M-75.311 22.83C-83.298 43.15 -67.7232 64.46 -52.5008 80.73C-36.3034 98.06 -18.9433 115.18 3.00946 125.47C24.9622 135.76 52.6234 138.09 73.4837 125.93C99.7119 110.63 108.051 77.99 130.862 58.44C148.257 43.52 173.898 37.61 196.638 43.28C218.167 48.64 235.563 63.02 253.663 75.21C271.763 87.4 293.422 98.11 315.34 94.4C346.29 89.17 363.908 58 370.956 29.17C376.547 6.25 381.82 -21.72 405.194 -30.09C412.735 -32.8 421.016 -32.82 429.073 -32.5C446.599 -31.8066 464.005 -29.6733 481.048 -26.13C488.883 -24.51 496.987 -22.58 504.798 -24.25C515.945 -26.63 524.261 -36.25 526.915 -46.69C532.33 -67.91 516.744 -89.92 496.376 -100.39C476.009 -110.86 452.001 -112.42 428.768 -113.51C381.456 -115.73 334.109 -116.893 286.727 -117L-93 -50.54L-75.311 22.83Z" fill="#7BAB5F"/>
<path d="M22.8815 49.5094C22.3009 49.3425 21.6894 49.3134 21.0957 49.4245C20.502 49.5356 19.9424 49.7838 19.4615 50.1494C17.9915 51.3493 18.2915 53.6594 19.5215 54.9294C19.9179 55.3024 20.3992 55.5732 20.9239 55.7184C21.4485 55.8636 22.0006 55.8787 22.5324 55.7625C23.0643 55.6463 23.5597 55.4023 23.976 55.0515C24.3923 54.7007 24.7168 54.2538 24.9215 53.7494C25.0855 53.201 25.1176 52.6217 25.015 52.0586C24.9125 51.4955 24.6783 50.9647 24.3315 50.5094C24.5715 48.9294 24.9115 44.6093 26.3315 43.7493C27.1615 45.8693 28.1015 49.8394 28.8715 52.5794C28.4721 52.7028 28.1011 52.9042 27.7801 53.172C27.4592 53.4398 27.1945 53.7686 27.0015 54.1394C25.8015 56.8894 30.7815 58.6293 31.7215 56.0593C31.9825 55.509 32.0445 54.8852 31.8967 54.2943C31.749 53.7034 31.4008 53.1821 30.9115 52.8194C30.7378 52.6876 30.5411 52.5893 30.3315 52.5294C30.1515 51.2594 29.9215 49.3693 29.7915 48.8493C30.9369 49.2432 32.1101 49.5507 33.3015 49.7693C33.3015 49.8894 33.3015 50.0193 33.2315 50.1394C33.1401 50.9763 33.3782 51.816 33.8952 52.4805C34.4123 53.145 35.1677 53.5822 36.0015 53.6993C37.9015 53.7993 38.5115 51.8394 38.5115 50.1494C38.5115 47.1494 35.1715 46.9794 33.9715 48.4794C32.1915 47.5894 29.9715 47.2593 29.1815 46.4793C28.8815 45.4793 26.6615 39.1793 26.0215 37.6393L26.1715 37.7393C28.7715 39.3894 31.8215 40.1293 34.4715 41.7393C35.0415 42.0793 35.6715 41.3093 35.3115 40.7893C32.1615 36.2593 28.1415 31.9993 22.7215 30.3893C21.8215 28.4893 18.0315 20.3894 17.1315 18.1493C18.3215 19.4794 19.8615 20.5193 20.9915 21.7993C23.8315 24.9893 27.0915 25.8593 28.8715 24.4593C31.0615 22.7493 26.5615 19.1093 25.1015 17.9693C22.5415 15.9693 15.3415 13.2093 15.2315 13.2693C13.5655 8.75561 12.2842 4.10905 11.4015 -0.620653C20.4015 7.37935 29.4015 15.3793 37.8815 23.7793C32.0015 27.5993 35.4515 36.9993 38.5115 41.5893C38.6127 41.7351 38.7539 41.8484 38.9181 41.9156C39.0823 41.9829 39.2624 42.0013 39.4368 41.9685C39.6112 41.9357 39.7724 41.8533 39.901 41.731C40.0295 41.6087 40.12 41.4519 40.1615 41.2793C41.2315 36.4693 42.1615 31.1393 40.5415 26.4193C43.7548 29.646 46.8848 32.956 49.9315 36.3493C51.8115 38.4593 53.5615 40.6593 55.2215 42.9193C54.4507 45.3396 54.1986 47.8951 54.4815 50.4193C53.0012 52.0311 51.7434 53.8338 50.7415 55.7794C50.7415 55.7794 47.8215 54.5193 46.6215 56.9994C45.1415 59.9994 50.2915 62.4394 52.0415 59.7894C52.5415 59.0394 52.0415 57.9594 51.8215 57.3594C52.8215 55.8694 53.8215 54.3593 54.7515 52.8393C55.1115 55.3194 55.6915 57.7693 56.1915 59.9994C52.6715 65.6194 56.3815 73.9994 60.8815 77.9394C60.9588 78.0009 61.0504 78.042 61.1478 78.0589C61.2452 78.0758 61.3453 78.068 61.4389 78.0361C61.5325 78.0043 61.6165 77.9494 61.6834 77.8766C61.7502 77.8038 61.7977 77.7153 61.8215 77.6194C62.8215 74.5394 61.9415 70.3993 60.4815 66.3393C61.1034 69.6092 61.2114 72.9562 60.8015 76.2594C57.4015 72.6794 55.0815 66.7894 57.0015 61.7794C57.1415 62.5993 57.3415 63.3994 57.5015 64.2194C57.9015 66.1693 58.1415 68.1494 58.4115 70.1194C58.4115 70.4494 58.9715 70.4394 58.9415 70.1194C58.7215 67.2494 58.4115 64.4294 57.9915 61.5993C58.4541 62.0112 58.8609 62.4819 59.2015 62.9994C58.8115 62.0694 58.4015 61.1594 58.0015 60.2894C55.9435 55.5941 55.5898 50.3276 57.0015 45.3993C62.5315 53.1394 65.8515 60.0794 70.0915 68.6494C72.0915 72.7194 73.4015 77.6494 75.2315 81.8194C72.9315 85.3194 72.0215 88.9694 71.5115 93.5294C70.1662 93.9454 68.9062 94.599 67.7915 95.4594C67.5286 94.8745 67.1143 94.3705 66.5915 93.9994C66.1799 93.7622 65.7232 93.6142 65.2508 93.565C64.7784 93.5157 64.3009 93.5662 63.8493 93.7133C63.3977 93.8604 62.982 94.1007 62.6292 94.4187C62.2764 94.7368 61.9944 95.1254 61.8015 95.5593C60.2615 99.4093 66.9915 101.759 68.2115 97.6594C68.2412 97.5582 68.2412 97.4505 68.2115 97.3493C69.2915 96.7693 70.2115 95.9793 71.3415 95.4193C71.2663 96.7283 71.2663 98.0404 71.3415 99.3493C70.024 100.272 68.9109 101.457 68.0715 102.829C67.1415 101.739 65.6715 101.179 64.4315 102.199C62.9615 103.409 62.4915 105.899 64.2415 107.059C65.3515 107.789 66.8915 108.529 68.6415 106.539C69.1315 105.989 68.9115 104.669 68.7515 103.959C69.544 102.858 70.4599 101.852 71.4815 100.959C71.5715 101.789 71.7115 102.609 71.8715 103.409C71.3035 103.793 70.881 104.357 70.6715 105.009C69.6715 108.519 74.6715 109.939 76.2315 106.369C76.5215 105.719 75.6415 103.669 74.7915 103.249C74.3218 102.979 73.7824 102.853 73.2415 102.889C72.7646 98.5806 73.0216 94.2222 74.0015 89.9994C74.6715 91.3994 75.4015 92.7594 76.0015 94.2194C76.6915 96.0494 77.2715 97.9294 77.8415 99.8093C77.3156 100.153 76.8607 100.594 76.5015 101.109C76.2719 101.487 76.1288 101.911 76.0822 102.351C76.0356 102.79 76.0867 103.235 76.232 103.652C76.3772 104.07 76.6129 104.45 76.9223 104.766C77.2317 105.082 77.607 105.326 78.0215 105.479C80.0215 106.209 81.2815 104.299 81.6515 102.479C81.7231 101.889 81.6292 101.29 81.3802 100.749C81.1312 100.209 80.737 99.7486 80.2415 99.4193C79.8986 99.2587 79.5159 99.2031 79.1415 99.2594C78.5515 95.3194 77.2715 90.9193 74.5915 87.9893C75.1615 86.0694 75.5915 84.9894 76.1615 83.1194C78.8907 89.4924 82.1523 95.6241 85.9115 101.449C85.9115 101.449 81.5315 108.169 94.6915 121.219C94.7833 121.296 94.8932 121.348 95.0107 121.37C95.1282 121.392 95.2493 121.383 95.3626 121.345C95.4759 121.307 95.5775 121.24 95.6579 121.152C95.7382 121.063 95.7945 120.956 95.8215 120.839C97.6215 115.519 93.0115 101.919 87.2115 100.269C87.2115 100.269 82.7015 92.2693 79.9615 88.0893C83.0215 90.4994 88.4315 94.4493 91.4715 91.4893C91.5768 91.3717 91.6399 91.2222 91.6508 91.0647C91.6616 90.9071 91.6197 90.7504 91.5315 90.6194C90.1291 88.839 88.2512 87.4921 86.1151 86.7346C83.9791 85.9772 81.6722 85.8401 79.4615 86.3393C78.1515 83.3393 75.7315 78.5193 74.4615 75.4893C75.902 77.468 77.8155 79.0539 80.0272 80.102C82.2388 81.1502 84.6779 81.6272 87.1215 81.4893C87.2603 81.4804 87.3953 81.4402 87.5163 81.3716C87.6373 81.303 87.7412 81.2078 87.8201 81.0933C87.899 80.9787 87.951 80.8478 87.972 80.7102C87.993 80.5727 87.9826 80.4323 87.9415 80.2994C85.8215 74.5794 73.3315 71.5494 73.1415 71.6494C72.5615 70.3694 71.9715 69.0993 71.3615 67.8393C68.5915 62.1394 65.7615 56.4594 62.5715 51.0094C65.0915 51.8894 67.6415 53.5493 70.2415 54.5893C70.1115 54.7494 74.2415 59.5893 77.6915 62.5893C77.1725 63.2775 76.8949 64.1175 76.9015 64.9794C76.9438 65.4539 77.0829 65.9147 77.3101 66.3334C77.5374 66.7522 77.8479 67.1199 78.2226 67.4141C78.5974 67.7083 79.0284 67.9226 79.4891 68.0439C79.9498 68.1652 80.4305 68.1909 80.9015 68.1194C81.5658 68.0157 82.1623 67.654 82.5612 67.1127C82.9601 66.5715 83.1291 65.8946 83.0315 65.2294C82.8715 63.4194 81.9215 61.1593 79.6415 61.3793C79.2192 61.4262 78.8163 61.5812 78.4715 61.8294C76.3315 59.6794 74.4715 57.2294 72.2115 55.2194C72.6615 55.3294 78.0315 57.4494 80.0815 58.0094C81.6843 58.5065 83.4006 58.503 85.0015 57.9994C87.2515 57.2094 91.1815 55.9994 90.0015 54.1993C88.0015 51.1993 83.3715 51.2894 80.5915 51.6693C77.8115 52.0493 75.8215 54.2993 72.6815 53.7693C70.9335 53.3199 69.2737 52.5796 67.7715 51.5794C72.7715 50.9294 75.6215 43.8393 76.3315 39.5793C76.3629 39.3976 76.3351 39.2106 76.2522 39.0458C76.1692 38.8811 76.0355 38.7474 75.8708 38.6644C75.706 38.5815 75.519 38.5537 75.3372 38.5852C75.1555 38.6167 74.9887 38.7058 74.8615 38.8393C72.6515 40.8393 69.8615 42.3493 67.9215 44.5793C66.5262 46.2303 65.668 48.2677 65.4615 50.4193C64.2912 49.9111 62.9956 49.7648 61.7415 49.9994C60.1215 47.2994 53.5715 38.1493 52.2715 36.6293C45.1494 28.4353 37.5707 20.6496 29.5715 13.3093C32.6715 12.1393 36.5715 12.9793 39.9715 13.6993C43.2115 17.8193 43.5915 18.2793 46.8615 21.1193C46.5249 21.5297 46.3032 22.022 46.2191 22.546C46.1349 23.0701 46.1913 23.607 46.3824 24.1021C46.5736 24.5973 46.8926 25.0328 47.3071 25.3644C47.7215 25.6959 48.2165 25.9116 48.7415 25.9893C49.1611 26.0516 49.5894 26.0189 49.9948 25.8939C50.4002 25.7689 50.7724 25.5546 51.0842 25.2669C51.3959 24.9791 51.6392 24.6252 51.7962 24.2311C51.9532 23.8369 52.02 23.4126 51.9915 22.9893C51.9923 22.4707 51.8545 21.9613 51.5924 21.5138C51.3302 21.0663 50.9533 20.697 50.5005 20.4441C50.0477 20.1912 49.5356 20.0639 49.0171 20.0754C48.4986 20.0868 47.9926 20.2367 47.5515 20.5093C45.4315 18.2493 44.3215 16.3093 42.5515 14.2793C46.2715 15.1894 47.3915 15.2793 50.2315 16.4593C50.1209 16.9409 50.1335 17.4426 50.2681 17.918C50.4027 18.3934 50.6549 18.8272 51.0015 19.1793C53.3715 21.6293 58.5015 19.8893 57.2815 16.1793C57.0931 15.6547 56.7909 15.1782 56.3968 14.784C56.0026 14.3899 55.5261 14.0878 55.0015 13.8993C54.4754 13.746 53.9235 13.7024 53.3799 13.7712C52.8363 13.8401 52.3127 14.0198 51.8415 14.2993C51.5245 14.4843 51.2406 14.7209 51.0015 14.9993C49.481 14.1572 47.8796 13.4704 46.2215 12.9493C48.137 12.3467 49.9683 11.5032 51.6715 10.4393C51.7284 10.6096 51.8021 10.7737 51.8915 10.9293C52.2358 11.4207 52.728 11.7893 53.2963 11.9818C53.8646 12.1742 54.4794 12.1804 55.0515 11.9993C55.3702 11.911 55.6663 11.7552 55.9196 11.5425C56.173 11.3298 56.3777 11.0651 56.5199 10.7665C56.6621 10.4678 56.7385 10.1421 56.744 9.81133C56.7494 9.48059 56.6838 9.15253 56.5515 8.84935C55.8115 6.96935 54.5515 6.17935 53.1115 6.78935C52.668 7.01073 52.29 7.34391 52.0147 7.75603C51.7393 8.16815 51.5762 8.64494 51.5415 9.13935C49.0096 10.063 46.5496 11.1727 44.1815 12.4593C44.0015 12.4593 37.0915 10.7293 35.1115 10.4593C42.4415 6.95935 42.4915 1.65935 43.7615 -5.92065C43.9615 -7.07065 42.6615 -7.37065 41.9315 -6.56065C40.0015 -4.39065 35.8415 -3.37065 33.7115 0.999348C32.3657 3.91366 31.9637 7.17548 32.5615 10.3293C31.0126 10.3207 29.4945 10.7619 28.1915 11.5993C28.1276 11.6521 28.0705 11.7125 28.0215 11.7793C20.8915 5.18935 13.5615 -1.22065 6.32146 -7.65065C8.20146 -7.28065 10.1515 -6.84065 12.0915 -6.52065C13.9915 -5.11065 15.9515 -3.78065 17.7815 -2.29065C17.7815 -2.20065 16.5415 -0.290653 19.7115 1.21935C20.5815 1.62935 22.7915 2.66935 23.7615 -0.630651C23.9132 -1.14985 23.8674 -1.70683 23.6329 -2.19427C23.3984 -2.68171 22.9918 -3.06513 22.4915 -3.27065C21.9121 -3.54626 21.2805 -3.69507 20.639 -3.70714C19.9975 -3.71921 19.3608 -3.59427 18.7715 -3.34065C17.6515 -4.34065 16.5015 -5.25065 15.3015 -6.14065C16.0009 -6.10076 16.702 -6.10076 17.4015 -6.14065C18.5115 -4.46065 22.4015 -5.09065 22.8015 -6.98065C23.2815 -10.2107 21.0415 -10.8707 20.1115 -10.9007C19.2962 -10.841 18.5306 -10.4862 17.9581 -9.90268C17.3856 -9.31915 17.0455 -8.54693 17.0015 -7.73065C13.0015 -8.14065 9.00146 -9.67065 5.07146 -9.04065C5.00146 -9.00065 -0.99854 -14.1907 -3.94854 -16.8507C-4.76854 -17.6007 -6.60854 -15.3207 -5.79854 -14.5607C-3.18854 -12.1407 2.85146 -7.31065 2.85146 -6.56065C1.67526 -5.54956 0.581772 -4.44604 -0.41854 -3.26065C-2.82854 -5.00065 -4.87854 -2.86065 -5.23854 -1.33065C-5.38522 -0.839403 -5.41824 -0.321222 -5.33508 0.184669C-5.25192 0.690561 -5.05476 1.17091 -4.75854 1.58935C-4.40189 1.93954 -3.95503 2.18386 -3.46773 2.29509C-2.98043 2.40632 -2.47182 2.3801 -1.99854 2.21935C0.24146 1.65935 0.67146 -0.250652 0.23146 -2.26065L2.82146 -5.26065C2.82146 -2.88065 2.70146 0.149347 2.77146 1.92935C1.98165 2.04554 1.24749 2.40437 0.670604 2.95618C0.0937128 3.50799 -0.297379 4.22548 -0.44854 5.00935C-0.70854 7.13935 1.41146 9.07935 3.43146 9.16935C3.94662 9.21022 4.4642 9.13027 4.94302 8.93586C5.42183 8.74145 5.84865 8.43795 6.1895 8.04951C6.53035 7.66108 6.77582 7.19844 6.90636 6.69843C7.03691 6.19841 7.04892 5.67483 6.94146 5.16935C6.31606 3.94008 5.36915 2.90332 4.20146 2.16935C4.57915 -0.71302 4.79615 -3.61417 4.85146 -6.52065L9.57146 -2.30065C10.0915 6.32935 13.3615 14.5194 16.9215 22.3293C13.3915 21.8993 4.50146 30.9993 9.50146 33.2293C11.7615 34.2293 13.9515 31.0793 15.0115 29.5993C16.0716 27.9661 17.043 26.277 17.9215 24.5393C19.0215 26.9127 20.1115 29.2827 21.1915 31.6493C17.2815 35.6993 11.9915 41.7694 16.1915 47.2094C16.2641 47.315 16.3596 47.4029 16.471 47.4665C16.5824 47.53 16.7067 47.5675 16.8347 47.5761C16.9626 47.5848 17.0909 47.5644 17.2098 47.5164C17.3287 47.4685 17.4353 47.3943 17.5215 47.2994C20.8915 44.0094 22.0515 39.2993 22.5215 34.6193C23.6515 37.1593 24.7515 39.7193 25.7815 42.3093C23.7515 43.2094 23.1015 47.0594 22.8815 49.5094ZM23.6215 53.1993C23.3912 53.5902 23.0642 53.9152 22.6718 54.1429C22.2795 54.3706 21.8351 54.4934 21.3815 54.4994C20.2315 54.2693 19.1815 52.4994 19.9715 51.4994C22.6515 48.4294 24.0015 52.4893 23.6215 53.1993ZM31.0015 55.1394C30.7315 57.3093 27.6215 55.9994 27.8015 55.0694C27.8715 54.6993 28.3915 53.2494 29.4115 53.4594C29.8421 53.48 30.2481 53.6664 30.5444 53.9795C30.8408 54.2926 31.0045 54.7082 31.0015 55.1394ZM34.5615 50.1394C34.6552 49.8498 34.8383 49.5974 35.0844 49.4183C35.3306 49.2393 35.6271 49.1429 35.9315 49.1429C36.2358 49.1429 36.5324 49.2393 36.7785 49.4183C37.0246 49.5974 37.2077 49.8498 37.3015 50.1394C37.3754 50.5284 37.3439 50.9301 37.2102 51.3029C37.0766 51.6756 36.8457 52.0059 36.5415 52.2594C36.2898 52.3824 36.0059 52.4235 35.7297 52.3769C35.4534 52.3303 35.1988 52.1982 35.0015 51.9994C34.5215 51.6794 34.4915 50.8894 34.5615 50.1594V50.1394ZM38.8615 33.9993C38.7693 32.0881 38.863 30.1724 39.1415 28.2793C39.1415 28.1693 39.1415 28.0593 39.2215 27.9493C39.8337 31.5462 39.7146 35.2295 38.8715 38.7793C36.4815 34.5393 35.3915 29.4093 38.6115 25.5193C37.9284 28.2909 37.7221 31.1585 38.0015 33.9993C38.0015 34.1134 38.0468 34.2228 38.1274 34.3034C38.208 34.384 38.3174 34.4293 38.4315 34.4293C38.5455 34.4293 38.6549 34.384 38.7355 34.3034C38.8162 34.2228 38.8615 34.1134 38.8615 33.9993ZM50.1815 59.7194C49.6015 60.3894 47.2715 58.6094 47.8815 57.4094C47.9727 57.2221 48.1041 57.0572 48.2662 56.9264C48.4284 56.7956 48.6173 56.7021 48.8196 56.6525C49.0219 56.6029 49.2327 56.5984 49.4369 56.6393C49.6412 56.6802 49.8339 56.7656 50.0015 56.8894C50.8615 57.4493 51.6315 58.6294 50.1815 59.7194ZM66.7315 96.3994C67.0115 97.3994 67.2715 97.8594 65.5715 98.5094C64.3115 98.6894 62.7015 97.7494 62.9415 96.3594C63.0134 96.0911 63.1403 95.8408 63.3143 95.6244C63.4882 95.4079 63.7054 95.2301 63.9518 95.1021C64.1983 94.9742 64.4687 94.899 64.7458 94.8813C65.0229 94.8636 65.3007 94.9038 65.5615 94.9994C66.1515 95.1993 66.7215 96.3894 66.7315 96.3994ZM67.6515 105.179C67.2715 106.599 66.1315 106.299 65.3415 106.099C63.9215 105.749 64.4615 103.679 65.4515 103.099C66.4415 102.519 67.6315 103.999 67.6515 105.179ZM74.2315 107.119C73.9715 107.229 73.4015 107.589 73.0315 107.499C72.5877 107.39 72.1948 107.132 71.9183 106.768C71.6417 106.404 71.4981 105.956 71.5115 105.499C71.5115 105.249 71.6215 103.789 74.0015 104.289C74.283 104.391 74.5294 104.571 74.7112 104.809C74.893 105.047 75.0026 105.332 75.0268 105.63C75.0511 105.929 74.989 106.228 74.8479 106.492C74.7069 106.756 74.4929 106.974 74.2315 107.119ZM80.1415 103.669C79.9853 103.894 79.773 104.074 79.5256 104.192C79.2783 104.31 79.0045 104.36 78.7315 104.339C77.6315 104.269 76.5915 102.899 77.1115 101.949C77.34 101.587 77.6513 101.283 78.0198 101.064C78.3884 100.845 78.8036 100.717 79.2315 100.689C80.0615 100.689 81.3115 102.049 80.1415 103.669ZM94.6815 119.389C90.3615 114.809 85.7815 108.059 87.1015 102.969C87.9315 104.389 88.6915 105.969 89.3115 107.309C90.0415 108.899 91.5615 111.019 91.7615 112.689C91.7615 113.019 92.3015 112.989 92.2715 112.689C92.0915 110.759 90.7015 108.869 89.9615 107.119C89.4815 105.979 88.9615 104.759 88.3915 103.589C92.1515 107.079 95.4515 114.649 94.6815 119.389ZM85.6815 89.3093C84.1815 88.6293 82.6815 87.9193 81.1715 87.3093C84.3315 87.4294 87.8215 88.5993 89.8515 90.9893C87.4515 92.5394 83.6615 89.8294 81.2315 88.0494C82.6415 88.6094 84.0015 89.3094 85.3815 89.9394C85.7615 90.0994 86.0715 89.4994 85.6715 89.3093H85.6815ZM85.1315 79.6693C81.1315 79.2794 78.0415 77.2693 75.2415 74.3493C78.6915 76.0893 82.5215 76.5394 85.1215 79.6693H85.1315ZM80.2615 62.8994C80.6704 63.0229 81.0355 63.2608 81.3137 63.5851C81.5919 63.9093 81.7715 64.3064 81.8315 64.7294C82.0415 66.8494 80.3715 66.9093 79.9415 66.8393C79.6542 66.8167 79.3752 66.7322 79.1237 66.5917C78.8721 66.4513 78.6538 66.2581 78.4838 66.0254C78.3138 65.7927 78.1961 65.5261 78.1388 65.2437C78.0814 64.9613 78.0857 64.6699 78.1515 64.3894C78.1465 64.1345 78.2041 63.8824 78.3191 63.655C78.4341 63.4276 78.6031 63.2318 78.8113 63.0848C79.0195 62.9378 79.2605 62.844 79.5133 62.8117C79.7661 62.7793 80.023 62.8094 80.2615 62.8994ZM79.6815 53.6693C82.5015 52.7693 85.5215 53.7993 88.4515 53.6693C87.6435 54.7239 86.5689 55.544 85.3385 56.045C84.1081 56.5459 82.7663 56.7097 81.4515 56.5193C80.3659 56.2735 79.3023 55.9391 78.2715 55.5193C79.9273 55.2632 81.5969 55.1063 83.2715 55.0494C83.4915 55.0494 83.5915 54.6894 83.3615 54.6094C82.2058 54.3195 81.0004 54.2887 79.8315 54.5193L77.1315 54.7794C77.9554 54.3522 78.8074 53.9813 79.6815 53.6693ZM70.6115 44.4293C71.7915 43.4293 73.0215 42.5693 74.2215 41.6293C73.2215 45.0393 71.2815 49.0394 68.2215 50.2494C68.4615 50.0227 68.7015 49.7827 68.9415 49.5294C69.8515 48.5294 70.4915 47.2893 71.5815 46.5293C71.643 46.4836 71.6848 46.4161 71.6981 46.3405C71.7114 46.265 71.6952 46.1872 71.653 46.1232C71.6108 46.0592 71.5456 46.0138 71.4709 45.9964C71.3962 45.9789 71.3177 45.9907 71.2515 46.0293C70.3562 46.6344 69.5715 47.3887 68.9315 48.2594C68.4068 48.8189 67.8491 49.3465 67.2615 49.8393C67.7746 47.7257 68.9481 45.8307 70.6115 44.4293ZM52.1315 15.6993C52.748 15.2217 53.5263 15.0029 54.3015 15.0893C54.7111 15.1848 55.0814 15.4039 55.3623 15.7169C55.6431 16.03 55.8209 16.4218 55.8715 16.8393C56.2315 19.5593 53.7715 19.4594 52.3415 18.5793C51.7615 18.2193 50.8515 17.8493 52.1315 15.6993ZM53.3815 8.16935C54.1515 7.33935 55.0515 8.58935 55.3815 9.60935C55.4356 9.83446 55.4029 10.0717 55.2898 10.2737C55.1767 10.4758 54.9916 10.6278 54.7715 10.6993C54.5002 10.8033 54.2052 10.8284 53.9203 10.7717C53.6354 10.7151 53.3723 10.5791 53.1615 10.3793C53.0015 10.2393 52.1215 9.54935 53.3815 8.16935ZM49.3815 21.3493C49.6098 21.3749 49.8284 21.4558 50.0183 21.5851C50.2082 21.7144 50.3636 21.8881 50.4711 22.0912C50.5785 22.2942 50.6347 22.5205 50.6348 22.7502C50.6349 22.9799 50.5788 23.2062 50.4715 23.4093C50.0415 24.4093 49.4715 24.7493 48.8415 24.5993C48.4634 24.5397 48.1166 24.3542 47.8571 24.0729C47.5976 23.7916 47.4405 23.431 47.4115 23.0493C47.4119 22.8035 47.4651 22.5605 47.5674 22.3369C47.6697 22.1133 47.8187 21.9143 48.0045 21.7532C48.1902 21.5921 48.4084 21.4727 48.6442 21.403C48.88 21.3333 49.128 21.315 49.3715 21.3493H49.3815ZM39.0015 0.599348C37.7615 2.59935 36.5115 4.54935 35.2915 6.53935C34.9915 7.02935 34.6115 7.53935 34.2915 8.08935C34.0939 4.7737 35.1991 1.51199 37.3715 -1.00065C38.8915 -2.63065 40.8115 -3.68065 42.4915 -5.00065C42.2281 -2.35019 41.5779 0.247391 40.5615 2.70935C39.1715 5.64935 36.8115 7.10935 34.5615 9.01935C35.9815 6.20935 37.8615 3.51935 39.4315 0.859348C39.5915 0.549349 39.1715 0.339348 39.0015 0.599348ZM18.6315 -1.40065C18.5815 -2.87065 20.7615 -2.75065 21.6815 -2.48065C22.6015 -2.21065 23.0015 0.999348 20.3015 0.389347C19.8806 0.293226 19.4976 0.0748825 19.2005 -0.238256C18.9033 -0.551395 18.7054 -0.945358 18.6315 -1.37065V-1.40065ZM19.7915 -9.77065C20.5315 -9.96065 23.1615 -7.83065 20.9215 -6.67065C20.3169 -6.32193 19.6073 -6.20131 18.9215 -6.33065C18.6564 -6.57521 18.4624 -6.88689 18.3599 -7.23271C18.2575 -7.57852 18.2505 -7.9456 18.3397 -8.29506C18.4288 -8.64453 18.6108 -8.96338 18.8664 -9.21787C19.122 -9.47235 19.4416 -9.65298 19.7915 -9.74065V-9.77065ZM-1.20854 0.229347C-1.36854 0.679348 -2.59854 0.949348 -3.03854 0.929348C-4.03854 0.929348 -4.12854 -0.070652 -4.03854 -0.810652C-3.94854 -1.55065 -3.48854 -2.93065 -2.56854 -2.65065C-2.27609 -2.5576 -2.00611 -2.40493 -1.77565 -2.20227C-1.54519 -1.99961 -1.35924 -1.75136 -1.22957 -1.47321C-1.09989 -1.19506 -1.02929 -0.893047 -1.02223 -0.586233C-1.01517 -0.279419 -1.0718 0.0255241 -1.18854 0.309347L-1.20854 0.229347ZM3.52146 7.85935C3.12109 7.8797 2.7217 7.80346 2.35697 7.63708C1.99224 7.4707 1.67287 7.21904 1.4258 6.90334C1.17873 6.58764 1.01121 6.21715 0.937353 5.82313C0.863501 5.4291 0.885488 5.02309 1.00146 4.63935C1.13324 4.32874 1.3344 4.05243 1.5895 3.8316C1.84461 3.61077 2.14689 3.45129 2.47318 3.36537C2.79947 3.27945 3.14109 3.26939 3.47187 3.33595C3.80265 3.40251 4.1138 3.54392 4.38146 3.74935C5.30146 4.29935 6.73146 7.26935 3.54146 7.93935L3.52146 7.85935ZM20.6715 16.9693C21.5715 17.4293 28.6715 21.7893 25.6715 22.9693C24.2515 23.5593 21.0015 19.9693 20.1215 19.1293L18.8315 17.8993C20.5434 18.8391 22.1784 19.9124 23.7215 21.1093C23.9115 21.2593 24.2315 21.0293 24.0615 20.8193C22.9066 19.5442 21.5564 18.4607 20.0615 17.6093C18.8915 16.8693 17.7215 16.0393 16.5015 15.3193C16.4315 15.2293 16.3415 15.1393 16.2715 15.0393C17.6015 15.8893 19.4615 16.4193 20.6915 17.0493L20.6715 16.9693ZM11.6715 30.6893C11.1615 31.1793 10.2515 32.1793 9.67146 31.3193C8.95146 30.3193 10.8915 28.3194 11.4815 27.7393C12.3918 26.8128 13.3973 25.9848 14.4815 25.2693C13.3915 26.5493 12.3215 27.8793 11.1215 29.0593C10.8815 29.2994 11.2715 29.6293 11.5115 29.4093C12.7815 28.2793 14.1415 27.0593 15.3515 25.7493C14.3703 27.5743 13.1532 29.2621 11.7315 30.7693L11.6715 30.6893ZM24.0915 33.3893C25.8142 34.5224 27.4549 35.7755 29.0015 37.1393C29.2715 37.3993 29.6415 36.9693 29.3815 36.7093C28.1015 35.3893 26.5015 34.4693 25.1415 33.2393C24.5615 32.7193 24.0315 32.0893 23.4315 31.5793C26.9713 33.385 30.0501 35.9781 32.4315 39.1593C31.0415 38.4793 29.6215 37.8693 28.2015 37.1593C26.6946 36.4297 25.3872 35.3453 24.3915 33.9993L24.0915 33.3893ZM19.4315 37.3893C18.5715 38.9993 17.7615 40.6293 17.0015 42.2693C16.9732 42.3411 16.9727 42.4208 17 42.4929C17.0273 42.5649 17.0805 42.6243 17.1492 42.6592C17.2179 42.6942 17.2972 42.7023 17.3716 42.682C17.446 42.6617 17.5101 42.6144 17.5515 42.5493C18.4015 40.8893 19.3415 39.2994 20.3315 37.7193C19.891 40.5234 18.7451 43.1696 17.0015 45.4093C14.8115 41.6593 17.9515 37.8194 20.8415 34.6493C20.4489 35.6061 19.9981 36.5378 19.4915 37.4393L19.4315 37.3893Z" fill="#FFFFE1"/>
<path d="M59.2017 62.9993C59.6617 64.0693 60.0917 65.1593 60.4817 66.2593C60.2318 65.1112 59.7997 64.0106 59.2017 62.9993Z" fill="#FFFFE1"/>
<path d="M184.007 -1.8552C184.205 -2.42568 184.268 -3.03465 184.189 -3.6336C184.111 -4.23255 183.894 -4.80494 183.556 -5.3052C182.438 -6.83891 180.115 -6.66629 178.779 -5.50793C178.385 -5.13261 178.088 -4.66685 177.915 -4.15098C177.741 -3.63511 177.695 -3.08466 177.782 -2.54727C177.869 -2.00988 178.085 -1.50174 178.413 -1.06683C178.74 -0.631919 179.169 -0.283337 179.661 -0.0512515C180.199 0.142675 180.776 0.206522 181.344 0.135079C181.912 0.0636359 182.455 -0.14107 182.928 -0.462334C184.493 -0.135881 188.788 0.440978 189.568 1.90609C187.406 2.61835 183.39 3.33879 180.612 3.95707C180.511 3.5515 180.33 3.17006 180.08 2.83484C179.831 2.49962 179.517 2.21728 179.157 2.00418C176.477 0.654888 174.466 5.53176 176.981 6.61155C177.516 6.90245 178.135 6.99858 178.734 6.88355C179.332 6.76851 179.871 6.44944 180.26 5.9808C180.402 5.8146 180.511 5.62363 180.582 5.41761C181.86 5.30767 183.76 5.18186 184.286 5.08063C183.83 6.20265 183.458 7.35726 183.174 8.53478C183.055 8.52818 182.925 8.52104 182.809 8.44455C181.978 8.30735 181.127 8.49892 180.435 8.97867C179.743 9.45843 179.265 10.1887 179.102 11.0148C178.898 12.9064 180.821 13.6232 182.509 13.716C185.504 13.8809 185.858 10.5553 184.426 9.27465C185.412 7.54624 185.864 5.34773 186.686 4.60178C187.701 4.35718 194.113 2.48669 195.686 1.93228L195.578 2.07655C193.788 4.58196 192.881 7.5867 191.128 10.1442C190.757 10.6947 191.491 11.366 192.03 11.0352C196.727 8.13883 201.201 4.35897 203.107 -0.96438C205.053 -1.75862 213.349 -5.09783 215.635 -5.87339C214.242 -4.75827 213.119 -3.27774 211.779 -2.21978C208.437 0.440655 207.39 3.64793 208.69 5.50216C210.277 7.78281 214.159 3.48961 215.377 2.09446C217.515 -0.351779 220.666 -7.38925 220.612 -7.50238C225.211 -8.91783 229.921 -9.94182 234.692 -10.5634C226.209 -2.01656 217.727 6.53028 208.874 14.5359C205.382 8.4549 195.807 11.3832 191.056 14.1864C190.905 14.2795 190.784 14.4143 190.708 14.5745C190.632 14.7347 190.603 14.9136 190.626 15.0895C190.65 15.2654 190.723 15.4309 190.838 15.566C190.953 15.7011 191.105 15.8 191.275 15.8509C196.019 17.1836 201.29 18.405 206.091 17.0468C202.693 20.078 199.216 23.0214 195.66 25.877C193.45 27.6383 191.158 29.2647 188.81 30.798C186.435 29.8955 183.898 29.5033 181.362 29.6471C179.834 28.0805 178.103 26.7255 176.215 25.6182C176.215 25.6182 177.634 22.7718 175.224 21.4374C172.309 19.7948 169.59 24.8029 172.14 26.6959C172.861 27.2364 173.967 26.7965 174.578 26.6098C176.011 27.6901 177.464 28.7716 178.931 29.7837C176.434 30.0069 173.956 30.4514 171.702 30.8281C166.284 27.0046 157.713 30.2486 153.532 34.5253C153.466 34.5991 153.42 34.6883 153.398 34.7846C153.375 34.881 153.378 34.9813 153.404 35.0765C153.431 35.1717 153.481 35.2587 153.55 35.3294C153.619 35.4002 153.705 35.4524 153.799 35.4814C156.82 36.6492 161.002 35.998 165.136 34.7633C161.837 35.2046 158.489 35.1285 155.213 34.5377C158.975 31.3395 164.983 29.3467 169.88 31.5391C169.054 31.6338 168.244 31.7895 167.417 31.9042C165.448 32.1965 163.457 32.3273 161.476 32.4887C161.146 32.4706 161.125 33.0303 161.446 33.0179C164.324 32.9559 167.157 32.8013 170.006 32.5375C169.569 32.9768 169.077 33.3571 168.541 33.6687C169.491 33.3304 170.423 32.971 171.313 32.6194C176.114 30.8225 181.392 30.7587 186.236 32.4391C178.203 37.5355 171.092 40.4691 162.302 44.2318C158.128 46.0052 153.133 47.0423 148.869 48.6404C145.501 46.1516 141.906 45.0424 137.381 44.2826C137.04 42.9165 136.456 41.6225 135.658 40.4622C136.257 40.2319 136.783 39.8459 137.182 39.3442C137.442 38.9463 137.614 38.4984 137.69 38.0294C137.765 37.5604 137.74 37.0809 137.618 36.6219C137.496 36.1629 137.279 35.7346 136.981 35.3649C136.683 34.9952 136.31 34.6923 135.888 34.4757C132.128 32.7265 129.412 39.3172 133.439 40.7607C133.538 40.7959 133.646 40.8018 133.748 40.7777C134.268 41.8879 135.006 42.8499 135.503 44.009C134.2 43.862 132.89 43.7899 131.579 43.7931C130.73 42.4269 129.608 41.2503 128.284 40.3368C129.424 39.4681 130.064 38.0311 129.113 36.7369C127.986 35.2026 125.525 34.5965 124.271 36.2802C123.481 37.3484 122.658 38.8454 124.548 40.7021C125.071 41.2216 126.401 41.0744 127.118 40.9537C128.174 41.8055 129.129 42.7754 129.964 43.8444C129.13 43.8886 128.304 43.9834 127.496 44.0992C127.144 43.511 126.605 43.0581 125.965 42.8131C122.515 41.6217 120.822 46.5362 124.301 48.29C124.934 48.6152 127.029 47.8492 127.496 47.0236C127.792 46.5695 127.946 46.0377 127.94 45.4957C132.269 45.2563 136.606 45.7524 140.769 46.9628C139.334 47.5549 137.936 48.209 136.445 48.7279C134.58 49.3163 132.671 49.7921 130.763 50.258C130.449 49.714 130.033 49.2356 129.538 48.8486C129.174 48.5986 128.758 48.4324 128.322 48.3617C127.885 48.291 127.439 48.3177 127.014 48.4398C126.589 48.5618 126.196 48.7763 125.864 49.0678C125.532 49.3594 125.268 49.7208 125.091 50.1261C124.253 52.083 126.091 53.4461 127.887 53.9155C128.473 54.0195 129.076 53.9586 129.63 53.7397C130.183 53.5208 130.664 53.1524 131.02 52.6758C131.2 52.3422 131.276 51.9632 131.24 51.5862C135.207 51.2136 139.671 50.1773 142.743 47.6623C144.629 48.337 145.684 48.8257 147.52 49.4976C141.006 51.8725 134.705 54.7922 128.682 58.2257C128.682 58.2257 122.213 53.483 108.459 65.9061C108.378 65.9936 108.32 66.1005 108.292 66.2166C108.263 66.3327 108.265 66.4541 108.297 66.5693C108.329 66.6846 108.39 66.7897 108.473 66.8748C108.557 66.9598 108.662 67.022 108.777 67.0553C113.99 69.1449 127.822 65.2891 129.789 59.5885C129.789 59.5885 138.024 55.5249 142.349 53.0187C139.774 55.9417 135.533 61.1265 138.321 64.3245C138.433 64.4362 138.579 64.5074 138.735 64.5269C138.892 64.5464 139.051 64.5131 139.187 64.4322C141.041 63.1298 142.489 61.3288 143.363 59.2375C144.237 57.1463 144.5 54.8505 144.123 52.6156C147.191 51.4725 152.137 49.321 155.232 48.2194C153.177 49.549 151.488 51.3725 150.32 53.5232C149.152 55.6739 148.542 58.0831 148.545 60.5306C148.546 60.6697 148.579 60.8067 148.641 60.9313C148.703 61.0559 148.792 61.1648 148.902 61.2499C149.012 61.335 149.14 61.3941 149.276 61.4226C149.413 61.4512 149.553 61.4485 149.688 61.4147C155.516 59.6122 159.228 47.3076 159.138 47.1124C160.448 46.6036 161.749 46.0842 163.041 45.5444C168.884 43.0918 174.711 40.5781 180.328 37.6924C179.311 40.1603 177.513 42.6152 176.332 45.1541C176.179 45.0155 171.12 48.8734 167.935 52.1533C167.276 51.5974 166.453 51.274 165.592 51.2332C165.116 51.2494 164.648 51.363 164.217 51.5668C163.787 51.7707 163.402 52.0606 163.088 52.4186C162.774 52.7766 162.536 53.1951 162.39 53.6485C162.243 54.1018 162.191 54.5804 162.237 55.0546C162.304 55.7236 162.632 56.3391 163.151 56.7672C163.669 57.1952 164.336 57.4012 165.005 57.3402C166.821 57.2799 169.13 56.4555 169.036 54.1668C169.012 53.7427 168.88 53.3318 168.651 52.9739C170.915 50.9553 173.464 49.2327 175.595 47.0865C175.46 47.5298 173.048 52.7752 172.377 54.7913C171.792 56.3645 171.701 58.0784 172.116 59.7045C172.781 61.9945 173.774 65.985 175.636 64.9057C178.741 63.0736 178.906 58.4456 178.679 55.6489C178.452 52.8523 176.315 50.7416 177.017 47.6355C177.562 45.9149 178.392 44.2983 179.473 42.8532C179.847 47.8814 186.77 51.1167 190.985 52.0597C191.164 52.1011 191.353 52.0836 191.522 52.0098C191.691 51.9361 191.832 51.8099 191.924 51.6499C192.015 51.49 192.053 51.3048 192.032 51.1216C192.011 50.9384 191.931 50.7669 191.804 50.6326C189.929 48.316 188.574 45.4472 186.454 43.3876C184.883 41.9038 182.895 40.935 180.758 40.6105C181.33 39.4699 181.547 38.1843 181.382 36.9192C184.167 35.45 193.663 29.4126 195.252 28.1981C203.825 21.537 212.016 14.3976 219.784 6.81376C220.782 9.97336 219.729 13.8213 218.824 17.1766C214.532 20.1853 214.052 20.5395 211.036 23.6485C210.645 23.2899 210.165 23.0415 209.647 22.9287C209.128 22.8159 208.589 22.8427 208.084 23.0063C207.579 23.17 207.127 23.4646 206.773 23.8602C206.419 24.2558 206.177 24.7381 206.07 25.2581C205.985 25.6737 205.994 26.1031 206.097 26.5148C206.199 26.9264 206.393 27.3099 206.663 27.637C206.933 27.964 207.273 28.2264 207.658 28.4048C208.043 28.5833 208.463 28.6732 208.887 28.668C209.405 28.6973 209.921 28.5878 210.382 28.3506C210.844 28.1135 211.233 27.7574 211.51 27.3192C211.788 26.881 211.943 26.3766 211.96 25.8583C211.977 25.3399 211.855 24.8264 211.607 24.371C213.98 22.3784 215.978 21.3766 218.103 19.7209C216.99 23.3852 216.838 24.4986 215.504 27.2695C215.029 27.1326 214.528 27.1176 214.045 27.2259C213.563 27.3342 213.116 27.5622 212.746 27.8888C210.169 30.1206 211.625 35.3385 215.396 34.3242C215.93 34.1649 216.423 33.8894 216.838 33.5175C217.253 33.1456 217.581 32.6864 217.798 32.1729C217.98 31.6561 218.054 31.1074 218.015 30.5609C217.976 30.0143 217.825 29.4816 217.572 28.9957C217.405 28.6691 217.184 28.3726 216.919 28.1185C217.844 26.6467 218.618 25.0854 219.229 23.4584C219.725 25.4042 220.467 27.279 221.436 29.0381C221.263 29.0856 221.095 29.1501 220.934 29.2308C220.425 29.5477 220.03 30.0188 219.806 30.5757C219.583 31.1325 219.543 31.7461 219.692 32.3272C219.763 32.6504 219.902 32.9546 220.101 33.2192C220.299 33.4839 220.552 33.7028 220.843 33.8612C221.133 34.0196 221.454 34.1138 221.784 34.1374C222.114 34.161 222.445 34.1135 222.755 33.9981C224.673 33.3625 225.531 32.1478 225.001 30.6764C224.804 30.2215 224.492 29.8257 224.096 29.5282C223.7 29.2306 223.233 29.0416 222.741 28.9797C221.958 26.4009 220.985 23.8836 219.83 21.4484C219.84 21.2687 221.947 14.4642 222.326 12.502C225.418 20.0132 230.707 20.3544 238.206 22.0389C239.343 22.3018 239.714 21.0203 238.945 20.2469C236.885 18.2006 236.095 13.9908 231.848 11.6239C229.012 10.1201 225.778 9.5394 222.596 9.96298C222.689 8.4169 222.332 6.87685 221.568 5.5298C221.518 5.4631 221.461 5.40276 221.397 5.35017C228.369 -1.40696 235.172 -8.37369 241.99 -15.2494C241.517 -13.3926 240.971 -11.4697 240.545 -9.55025C239.033 -7.73059 237.597 -5.84663 236.009 -4.10127C235.919 -4.10621 234.08 -5.44929 232.398 -2.36705C231.941 -1.52089 230.781 0.628631 234.023 1.77849C234.533 1.9585 235.091 1.94337 235.591 1.73602C236.09 1.52867 236.496 1.14376 236.728 0.655465C237.035 0.0920807 237.219 -0.530331 237.266 -1.1702C237.313 -1.81007 237.223 -2.45266 237.003 -3.05507C238.063 -4.11843 239.034 -5.21669 239.989 -6.36598C239.911 -5.66979 239.872 -4.96972 239.874 -4.26915C238.135 -3.25314 238.551 0.665603 240.416 1.16885C243.614 1.8256 244.397 -0.374751 244.478 -1.3017C244.463 -2.11903 244.151 -2.90295 243.599 -3.50663C243.048 -4.11031 242.296 -4.49235 241.483 -4.58118C242.112 -8.55261 243.86 -12.4625 243.447 -16.4212C243.411 -16.4933 248.923 -22.199 251.741 -24.9984C252.535 -25.776 250.359 -27.7385 249.556 -26.9715C246.996 -24.4984 241.841 -18.7329 241.093 -18.7741C240.148 -20.0041 239.106 -21.1565 237.977 -22.2205C239.847 -24.5312 237.823 -26.6957 236.315 -27.1392C235.832 -27.3127 235.317 -27.3741 234.807 -27.3189C234.298 -27.2637 233.807 -27.0932 233.373 -26.8204C233.004 -26.4835 232.735 -26.0508 232.597 -25.5703C232.46 -25.0899 232.458 -24.5806 232.592 -24.0992C233.028 -21.8318 234.912 -21.2975 236.943 -21.6264L239.796 -18.8755C237.42 -19.0062 234.401 -19.2926 232.62 -19.3205C232.547 -20.1155 232.229 -20.8682 231.71 -21.4746C231.191 -22.0809 230.496 -22.5108 229.721 -22.7048C227.609 -23.0815 225.555 -21.0713 225.354 -19.0593C225.285 -18.5471 225.337 -18.0259 225.504 -17.5372C225.672 -17.0484 225.952 -16.6055 226.321 -16.2439C226.69 -15.8822 227.139 -15.6117 227.631 -15.4539C228.123 -15.296 228.645 -15.2553 229.155 -15.3348C230.417 -15.8917 231.504 -16.7802 232.302 -17.9058C235.159 -17.3703 238.044 -16.9942 240.943 -16.7793L236.47 -12.2983C227.824 -12.2533 219.467 -9.43824 211.473 -6.31275C212.096 -9.81379 203.499 -19.1904 200.997 -14.3205C199.875 -12.1188 202.899 -9.75904 204.319 -8.61932C205.891 -7.47105 207.525 -6.4083 209.211 -5.43569C206.781 -4.46776 204.355 -3.50963 201.933 -2.5613C198.103 -6.68793 192.333 -12.3035 186.671 -8.40871C186.561 -8.34202 186.468 -8.25142 186.399 -8.14369C186.329 -8.03595 186.285 -7.91388 186.269 -7.78661C186.254 -7.65935 186.267 -7.53018 186.308 -7.40879C186.349 -7.2874 186.418 -7.17694 186.508 -7.08567C189.608 -3.53998 194.247 -2.12294 198.894 -1.3965C196.296 -0.407772 193.679 0.549904 191.036 1.43604C190.249 -0.640349 186.441 -1.50091 184.007 -1.8552ZM180.282 -1.31907C179.904 -1.57041 179.597 -1.91484 179.392 -2.31911C179.186 -2.72338 179.088 -3.17387 179.107 -3.62711C179.399 -4.76274 181.224 -5.7139 182.18 -4.87014C185.098 -2.02551 180.97 -0.900629 180.282 -1.31907ZM177.939 5.94319C175.787 5.55436 177.266 2.52104 178.185 2.75187C178.55 2.84209 179.97 3.44098 179.704 4.4479C179.66 4.87675 179.451 5.27186 179.122 5.55056C178.793 5.82926 178.369 5.96995 177.939 5.94319ZM182.736 9.77255C183.02 9.88206 183.262 10.0787 183.427 10.3343C183.592 10.5899 183.672 10.8913 183.656 11.1952C183.639 11.4991 183.526 11.7899 183.334 12.0259C183.142 12.2618 182.88 12.4307 182.585 12.5084C182.193 12.5608 181.793 12.5073 181.428 12.3534C181.064 12.1995 180.747 11.9508 180.51 11.6331C180.401 11.375 180.376 11.0893 180.437 10.816C180.499 10.5428 180.645 10.2958 180.854 10.1097C181.2 9.64799 181.991 9.66144 182.716 9.77145L182.736 9.77255ZM198.615 14.9529C200.529 14.9658 202.436 15.1647 204.311 15.5468C204.421 15.5528 204.531 15.5588 204.636 15.6448C201.011 16.0584 197.34 15.7372 193.842 14.7002C198.207 12.5468 203.389 11.7403 207.096 15.1692C204.366 14.3349 201.514 13.9713 198.662 14.0942C198.549 14.0879 198.437 14.1271 198.352 14.2032C198.267 14.2793 198.216 14.386 198.209 14.4999C198.203 14.6138 198.242 14.7255 198.318 14.8104C198.395 14.8954 198.501 14.9466 198.615 14.9529ZM172.312 24.8426C171.675 24.2266 173.58 21.9979 174.745 22.673C174.927 22.7744 175.084 22.9146 175.206 23.0837C175.328 23.2528 175.411 23.4465 175.449 23.6513C175.488 23.856 175.48 24.0667 175.428 24.2684C175.376 24.4701 175.28 24.6578 175.148 24.8183C174.541 25.6463 173.321 26.3503 172.312 24.8426ZM134.778 39.3521C133.764 39.5768 133.291 39.8111 132.735 38.0779C132.624 36.8099 133.652 35.254 135.026 35.57C135.29 35.6566 135.533 35.7971 135.74 35.9827C135.946 36.1683 136.112 36.3948 136.226 36.648C136.34 36.9011 136.401 37.1752 136.403 37.4529C136.405 37.7306 136.35 38.0057 136.24 38.2608C136.008 38.8389 134.789 39.3427 134.778 39.3521ZM125.961 39.7883C124.564 39.3309 124.926 38.2091 125.169 37.4312C125.597 36.0326 127.634 36.6855 128.159 37.7059C128.683 38.7263 127.14 39.8332 125.961 39.7883ZM123.662 46.2518C123.567 45.9861 123.238 45.3972 123.349 45.0327C123.482 44.5956 123.762 44.2175 124.14 43.9614C124.519 43.7053 124.974 43.5865 125.429 43.6249C125.679 43.6386 127.131 43.8287 126.501 46.1776C126.384 46.4531 126.19 46.6892 125.942 46.8577C125.695 47.0262 125.404 47.1199 125.105 47.1277C124.806 47.1355 124.511 47.0571 124.255 46.9018C123.999 46.7465 123.793 46.5208 123.662 46.2518ZM126.782 52.3424C126.566 52.1741 126.398 51.9522 126.294 51.6988C126.19 51.4454 126.155 51.1692 126.191 50.8977C126.321 49.8032 127.746 48.8401 128.666 49.4115C129.016 49.6596 129.302 49.9871 129.5 50.3671C129.698 50.7471 129.804 51.1688 129.808 51.5975C129.762 52.4263 128.335 53.5996 126.782 52.3424ZM110.287 65.9967C115.098 61.9349 122.089 57.7327 127.099 59.3303C125.635 60.0811 124.016 60.7531 122.644 61.2985C121.016 61.9401 118.816 63.3413 117.137 63.4492C116.808 63.4311 116.808 63.9719 117.109 63.9585C119.046 63.8848 121.01 62.6007 122.798 61.958C123.963 61.5414 125.209 61.0892 126.409 60.5843C122.717 64.1469 114.978 67.026 110.287 65.9967ZM140.816 58.6631C141.578 57.2027 142.369 55.744 143.061 54.2698C142.767 57.4184 141.407 60.8388 138.91 62.7345C137.494 60.2529 140.408 56.6175 142.319 54.289C141.682 55.6661 140.908 56.9856 140.204 58.3289C140.023 58.6995 140.605 59.042 140.817 58.6531L140.816 58.6631ZM150.472 58.6436C151.081 54.671 153.258 51.6962 156.327 49.0608C154.4 52.41 153.74 56.2095 150.472 58.6336L150.472 58.6436ZM167.484 54.7024C167.338 55.1039 167.081 55.4554 166.742 55.7154C166.402 55.9753 165.996 56.1329 165.571 56.1695C163.442 56.2627 163.474 54.5919 163.568 54.1664C163.606 53.8808 163.706 53.6069 163.86 53.3634C164.014 53.1199 164.219 52.9126 164.46 52.7557C164.702 52.5987 164.975 52.4959 165.26 52.4541C165.545 52.4123 165.836 52.4327 166.112 52.5137C166.367 52.5228 166.616 52.5941 166.836 52.7214C167.057 52.8488 167.243 53.0283 167.379 53.2442C167.514 53.4602 167.594 53.706 167.613 53.9602C167.631 54.2144 167.587 54.4692 167.484 54.7024ZM176.732 54.6304C177.476 57.4956 176.281 60.4544 176.25 63.3872C175.241 62.5225 174.482 61.4045 174.049 60.1484C173.617 58.8923 173.527 57.5435 173.789 56.2411C174.094 55.1707 174.486 54.1271 174.962 53.1209C175.127 54.7883 175.192 56.464 175.157 58.1392C175.145 58.3588 175.499 58.4785 175.591 58.2532C175.944 57.1152 176.041 55.9133 175.875 54.7335L175.764 52.0233C176.145 52.8694 176.468 53.7405 176.732 54.6304ZM186.456 46.0818C187.39 47.315 188.181 48.5904 189.054 49.8402C185.704 48.6544 181.817 46.4975 180.776 43.3756C180.99 43.6277 181.216 43.8806 181.456 44.1341C182.404 45.0977 183.607 45.8049 184.306 46.935C184.349 46.999 184.414 47.0443 184.488 47.0618C184.563 47.0792 184.642 47.0674 184.708 47.0287C184.774 46.9901 184.823 46.9275 184.844 46.8539C184.866 46.7803 184.859 46.7012 184.824 46.6329C184.269 45.7058 183.559 44.8808 182.724 44.1939C182.195 43.6393 181.698 43.0535 181.239 42.4396C183.321 43.0681 185.149 44.344 186.456 46.0818ZM216.158 29.2084C216.601 29.8502 216.777 30.6394 216.648 31.4086C216.53 31.8123 216.291 32.1701 215.963 32.4333C215.635 32.6965 215.234 32.8525 214.815 32.8801C212.079 33.0901 212.314 30.6393 213.271 29.2598C213.663 28.7004 214.082 27.8122 216.158 29.2084ZM223.608 30.8702C224.395 31.6847 223.097 32.5146 222.061 32.7881C221.833 32.8298 221.598 32.784 221.402 32.66C221.207 32.536 221.065 32.3429 221.006 32.1191C220.917 31.8426 220.908 31.5466 220.98 31.2652C221.052 30.9839 221.203 30.7287 221.414 30.5291C221.562 30.377 222.3 29.5363 223.608 30.8702ZM210.668 26.1521C210.63 26.3786 210.537 26.5925 210.398 26.775C210.258 26.9575 210.076 27.1032 209.867 27.1993C209.659 27.2954 209.43 27.3391 209.2 27.3265C208.971 27.314 208.748 27.2456 208.551 27.1272C207.576 26.6429 207.268 26.0551 207.453 25.4343C207.533 25.0601 207.737 24.724 208.032 24.4803C208.327 24.2367 208.696 24.0997 209.079 24.0916C209.324 24.1056 209.564 24.172 209.782 24.2865C209.999 24.4009 210.19 24.5606 210.34 24.755C210.491 24.9493 210.598 25.1737 210.655 25.4129C210.712 25.6522 210.716 25.9008 210.669 26.1421L210.668 26.1521ZM231.957 16.9279C230.028 15.5799 228.15 14.2246 226.23 12.8971C225.757 12.5706 225.269 12.1632 224.737 11.8135C228.059 11.7984 231.255 13.0811 233.644 15.3883C235.188 16.9955 236.131 18.9703 237.357 20.7203C234.725 20.3117 232.167 19.5197 229.764 18.3696C226.905 16.8201 225.577 14.3835 223.794 12.0319C226.521 13.6042 229.104 15.6292 231.674 17.3429C231.975 17.5197 232.207 17.1119 231.957 16.9279ZM235.073 -3.30145C236.544 -3.27061 236.304 -1.10049 235.984 -0.196719C235.664 0.707056 232.437 0.930073 233.194 -1.73233C233.313 -2.14725 233.552 -2.51771 233.881 -2.79718C234.21 -3.07665 234.615 -3.25266 235.043 -3.3031L235.073 -3.30145ZM243.367 -1.6833C243.516 -0.933982 241.245 1.57501 240.209 -0.725345C239.894 -1.3482 239.813 -2.06327 239.98 -2.74101C240.239 -2.99225 240.56 -3.16885 240.911 -3.25211C241.262 -3.33537 241.629 -3.32219 241.973 -3.21396C242.317 -3.10573 242.626 -2.90649 242.866 -2.63732C243.106 -2.36816 243.269 -2.03908 243.337 -1.68495L243.367 -1.6833ZM234.536 -23.201C234.095 -23.3855 233.893 -24.6285 233.937 -25.0667C233.992 -26.0652 234.996 -26.1001 235.73 -25.9696C236.464 -25.8391 237.816 -25.304 237.486 -24.4007C237.377 -24.1138 237.21 -23.8527 236.995 -23.6337C236.78 -23.4147 236.522 -23.2427 236.237 -23.1285C235.952 -23.0143 235.647 -22.9604 235.34 -22.9702C235.033 -22.98 234.732 -23.0533 234.455 -23.1855L234.536 -23.201ZM226.657 -18.8974C226.659 -19.2983 226.757 -19.6929 226.943 -20.0479C227.13 -20.403 227.398 -20.708 227.727 -20.9374C228.056 -21.1667 228.435 -21.3137 228.833 -21.3658C229.23 -21.4178 229.634 -21.3736 230.011 -21.2367C230.314 -21.088 230.579 -20.872 230.785 -20.6052C230.992 -20.3383 231.134 -20.0277 231.202 -19.6972C231.27 -19.3667 231.261 -19.025 231.177 -18.6984C231.092 -18.3718 230.934 -18.0689 230.714 -17.8129C230.114 -16.9245 227.07 -15.6599 226.576 -18.8819L226.657 -18.8974ZM216.619 -2.2739C216.11 -1.40054 211.367 5.44917 210.353 2.38887C209.842 0.938593 213.605 -2.10924 214.492 -2.94175L215.791 -4.16222C214.759 -2.50454 213.598 -0.930912 212.318 0.544012C212.157 0.725484 212.369 1.05764 212.588 0.899433C213.925 -0.183651 215.081 -1.47224 216.013 -2.91815C216.817 -4.04572 217.71 -5.16835 218.496 -6.34694C218.589 -6.41189 218.684 -6.49681 218.788 -6.56121C217.866 -5.27992 217.235 -3.45185 216.538 -2.25833L216.619 -2.2739ZM203.414 -12.0142C202.953 -12.5503 202.004 -13.5139 202.895 -14.0458C203.933 -14.7097 205.823 -12.6628 206.37 -12.0418C207.245 -11.0819 208.017 -10.0324 208.672 -8.91061C207.453 -10.0693 206.184 -11.2108 205.072 -12.4738C204.845 -12.7266 204.495 -12.3553 204.701 -12.1036C205.76 -10.7734 206.903 -9.34844 208.144 -8.06829C206.376 -9.14825 204.758 -10.4563 203.331 -11.9587L203.414 -12.0142ZM200.036 0.238712C198.81 1.89659 197.468 3.466 196.022 4.93525C195.747 5.19055 196.156 5.58362 196.43 5.3383C197.818 4.13277 198.825 2.58573 200.128 1.29537C200.679 0.744815 201.337 0.250233 201.879 -0.320838C199.882 3.11444 197.124 6.04614 193.816 8.24907C194.572 6.89854 195.259 5.5142 196.046 4.13536C196.857 2.67083 198.012 1.425 199.41 0.504741L200.036 0.238712ZM196.298 -4.63403C194.738 -5.5812 193.155 -6.47954 191.559 -7.3285C191.489 -7.36066 191.409 -7.36556 191.336 -7.34224C191.262 -7.31892 191.2 -7.26905 191.161 -7.20237C191.123 -7.13569 191.11 -7.05698 191.126 -6.98161C191.143 -6.90624 191.186 -6.8396 191.249 -6.79472C192.86 -5.85479 194.396 -4.82885 195.919 -3.75353C193.143 -4.34743 190.564 -5.63695 188.424 -7.50103C192.288 -9.48168 195.95 -6.13542 198.956 -3.07561C198.023 -3.52014 197.117 -4.0215 196.245 -4.57687L196.298 -4.63403Z" fill="#FFFFE1"/>
<path d="M168.542 33.6687C167.448 34.0692 166.336 34.4387 165.216 34.7676C166.376 34.5813 167.499 34.2103 168.542 33.6687Z" fill="#FFFFE1"/>
<path d="M290.814 30.1287C290.961 29.5429 290.969 28.9307 290.838 28.3411C290.706 27.7515 290.439 27.2007 290.058 26.7325C288.808 25.3042 286.51 25.6827 285.282 26.9552C284.923 27.3641 284.669 27.8544 284.541 28.3837C284.414 28.9129 284.418 29.4652 284.552 29.9928C284.686 30.5203 284.947 31.0072 285.312 31.4113C285.677 31.8154 286.134 32.1245 286.646 32.3119C287.199 32.4572 287.779 32.4695 288.338 32.3478C288.898 32.2262 289.42 31.974 289.864 31.6119C291.451 31.798 295.78 31.9908 296.688 33.3807C294.597 34.2823 290.661 35.3569 287.949 36.2198C287.812 35.8248 287.598 35.4609 287.32 35.1493C287.041 34.8376 286.704 34.5842 286.327 34.404C283.537 33.2983 281.968 38.3346 284.568 39.1866C285.127 39.4287 285.753 39.4694 286.338 39.3017C286.924 39.1339 287.433 38.7681 287.779 38.2668C287.905 38.0887 287.996 37.8888 288.049 37.6772C289.312 37.4541 291.193 37.1599 291.708 37.0123C291.354 38.1704 291.086 39.3535 290.908 40.5515C290.789 40.5556 290.659 40.5601 290.536 40.4942C289.697 40.4314 288.866 40.6979 288.219 41.2373C287.573 41.7766 287.161 42.5465 287.073 43.3838C287.037 45.2861 289.017 45.829 290.706 45.7715C293.704 45.6693 293.76 42.3255 292.221 41.1772C293.049 39.368 293.304 37.138 294.056 36.3219C295.046 35.9881 301.266 33.5549 302.784 32.8629L302.689 33.0162C301.128 35.6708 300.492 38.7443 298.974 41.4475C298.653 42.0288 299.444 42.6322 299.952 42.2547C304.372 38.9523 308.493 34.7896 309.917 29.318C311.785 28.3538 319.752 24.2903 321.96 23.3146C320.671 24.5491 319.684 26.1236 318.443 27.2966C315.352 30.2435 314.593 33.5312 316.053 35.2625C317.837 37.3931 321.321 32.7718 322.411 31.2738C324.323 28.6472 326.836 21.3574 326.772 21.2495C331.227 19.4309 335.827 17.9922 340.524 16.9489C332.835 26.216 325.146 35.4832 317.039 44.2442C313.021 38.4976 303.744 42.2656 299.261 45.4801C299.119 45.5862 299.01 45.7312 298.949 45.8976C298.887 46.064 298.875 46.2446 298.914 46.4178C298.952 46.591 299.04 46.7492 299.167 46.8736C299.293 46.9979 299.453 47.083 299.627 47.1186C304.471 48.0242 309.829 48.7722 314.491 46.9925C311.376 50.3138 308.174 53.5547 304.887 56.7151C302.842 58.6658 300.703 60.4897 298.501 62.2257C296.056 61.5377 293.493 61.3727 290.98 61.7414C289.319 60.3169 287.474 59.1211 285.496 58.186C285.496 58.186 286.655 55.2248 284.136 54.1099C281.087 52.7329 278.824 57.963 281.532 59.6218C282.299 60.096 283.361 59.5595 283.953 59.3192C285.476 60.2679 287.02 61.2159 288.57 62.0936C286.104 62.5378 283.675 63.2009 281.464 63.7765C275.727 60.4499 267.478 64.443 263.694 69.0745C263.635 69.1539 263.597 69.2468 263.583 69.3447C263.57 69.4427 263.581 69.5424 263.616 69.6349C263.651 69.7273 263.709 69.8095 263.784 69.8738C263.859 69.9381 263.949 69.9826 264.045 70.003C267.158 70.8976 271.265 69.8772 275.273 68.2798C272.026 69.0127 268.685 69.2346 265.37 68.9373C268.832 65.4174 274.64 62.8983 279.712 64.6466C278.897 64.8145 278.105 65.0416 277.291 65.2294C275.355 65.6956 273.385 66.0028 271.425 66.3397C271.095 66.351 271.124 66.9103 271.443 66.8694C274.304 66.5518 277.112 66.146 279.926 65.6299C279.53 66.1064 279.073 66.5289 278.568 66.8869C279.484 66.4655 280.379 66.0247 281.235 65.5953C285.858 63.3787 291.109 62.8459 296.083 64.0891C288.535 69.8793 281.712 73.4336 273.292 77.9629C269.292 80.1003 264.41 81.5774 260.304 83.5482C256.728 81.3687 253.049 80.5835 248.475 80.229C248.013 78.8986 247.317 77.6617 246.419 76.5769C246.995 76.2943 247.484 75.8631 247.837 75.3279C248.06 74.9085 248.193 74.4469 248.226 73.9731C248.259 73.4993 248.192 73.0239 248.03 72.5775C247.867 72.1312 247.613 71.7239 247.283 71.3822C246.953 71.0404 246.555 70.7718 246.115 70.5937C242.215 69.1857 240.095 75.9918 244.235 77.0715C244.337 77.0978 244.444 77.0941 244.544 77.061C245.161 78.1206 245.982 79.0132 246.58 80.1234C245.269 80.0929 243.958 80.1376 242.652 80.2572C241.685 78.9719 240.463 77.8998 239.063 77.1076C240.12 76.141 240.63 74.6528 239.569 73.4482C238.309 72.0203 235.805 71.6353 234.705 73.4238C234.013 74.558 233.326 76.1223 235.374 77.8035C235.941 78.2745 237.252 78.0097 237.957 77.8257C239.084 78.5802 240.121 79.4614 241.048 80.452C240.221 80.5701 239.407 80.738 238.612 80.9251C238.209 80.3706 237.632 79.9674 236.973 79.7803C233.431 78.9003 232.182 83.9458 235.803 85.3834C236.462 85.6511 238.481 84.7018 238.872 83.838C239.126 83.3594 239.233 82.816 239.179 82.2766C243.469 81.6534 247.833 81.7619 252.087 82.5974C250.711 83.3147 249.376 84.0905 247.938 84.7399C246.132 85.4918 244.273 86.1354 242.414 86.7691C242.052 86.2553 241.596 85.8156 241.069 85.4741C240.683 85.2576 240.255 85.1289 239.814 85.0974C239.373 85.0658 238.93 85.132 238.518 85.2914C238.106 85.4508 237.734 85.6993 237.428 86.0192C237.123 86.3392 236.893 86.7226 236.753 87.142C236.092 89.1657 238.043 90.36 239.875 90.6678C240.468 90.7193 241.063 90.605 241.594 90.3378C242.126 90.0706 242.573 89.6609 242.885 89.1544C243.034 88.8063 243.077 88.4219 243.008 88.0496C246.925 87.3259 251.279 85.8968 254.116 83.1186C256.054 83.6229 257.148 84.0159 259.037 84.522C252.76 87.4666 246.743 90.935 241.049 94.8903C241.049 94.8903 234.184 90.7416 221.59 104.338C221.516 104.433 221.468 104.544 221.45 104.662C221.432 104.78 221.445 104.901 221.487 105.013C221.529 105.125 221.599 105.224 221.69 105.302C221.781 105.379 221.891 105.432 222.008 105.455C227.386 107.072 240.821 102.002 242.273 96.1493C242.273 96.1493 250.115 91.3696 254.199 88.4889C251.895 91.6292 248.131 97.1705 251.193 100.108C251.314 100.209 251.465 100.267 251.623 100.273C251.781 100.278 251.936 100.231 252.064 100.138C253.796 98.6762 255.078 96.7535 255.762 94.5929C256.447 92.4323 256.505 90.1221 255.931 87.9297C258.885 86.5183 263.619 83.9356 266.604 82.5632C264.676 84.0702 263.156 86.0367 262.184 88.2827C261.212 90.5287 260.818 92.9827 261.039 95.4201C261.053 95.5586 261.097 95.6921 261.17 95.8107C261.243 95.9293 261.341 96.0299 261.459 96.1049C261.576 96.1799 261.708 96.2273 261.847 96.2436C261.985 96.26 262.125 96.2447 262.256 96.1991C267.901 93.8856 270.504 81.2997 270.397 81.1133C271.657 80.49 272.906 79.8571 274.145 79.2046C279.747 76.2422 285.327 73.2205 290.666 69.8468C289.872 72.3953 288.3 75.0003 287.349 77.6342C287.184 77.5097 282.488 81.8021 279.607 85.3522C278.902 84.857 278.053 84.6081 277.191 84.644C276.719 84.7025 276.263 84.8572 275.852 85.0986C275.441 85.3399 275.084 85.6628 274.803 86.0473C274.522 86.4319 274.322 86.8699 274.217 87.3345C274.111 87.799 274.102 88.2803 274.189 88.7486C274.316 89.409 274.697 89.9929 275.252 90.3731C275.806 90.7534 276.489 90.8993 277.15 90.779C278.954 90.5575 281.18 89.5311 280.883 87.2599C280.821 86.8395 280.653 86.4421 280.393 86.1059C282.469 83.8939 284.854 81.9516 286.786 79.6245C286.692 80.078 284.756 85.517 284.266 87.5849C283.823 89.2038 283.885 90.919 284.443 92.5017C285.309 94.7235 286.652 98.6101 288.411 97.3695C291.341 95.2685 291.094 90.6443 290.619 87.8788C290.145 85.1134 287.828 83.2011 288.251 80.0449C288.641 78.2827 289.324 76.5986 290.273 75.0632C291.093 80.0382 298.276 82.6452 302.557 83.2097C302.74 83.235 302.926 83.2009 303.088 83.1123C303.25 83.0238 303.379 82.8856 303.456 82.7182C303.533 82.5507 303.555 82.3628 303.517 82.1822C303.479 82.0017 303.385 81.838 303.247 81.7154C301.173 79.5748 299.569 76.8378 297.274 74.9748C295.576 73.6366 293.511 72.8482 291.354 72.715C291.822 71.5281 291.924 70.2283 291.647 68.9829C294.29 67.2719 303.212 60.4142 304.687 59.0633C312.633 51.6664 320.157 43.827 327.22 35.5826C328.495 38.641 327.788 42.5673 327.185 45.9898C323.177 49.3682 322.73 49.7636 320.003 53.1284C319.582 52.806 319.082 52.6013 318.556 52.535C318.029 52.4687 317.494 52.5433 317.006 52.7512C316.518 52.9591 316.093 53.2928 315.776 53.7183C315.459 54.1437 315.26 54.6458 315.2 55.1731C315.152 55.5947 315.2 56.0216 315.338 56.4225C315.477 56.8234 315.704 57.1881 316.002 57.4899C316.3 57.7917 316.662 58.0228 317.062 58.1663C317.461 58.3098 317.887 58.362 318.309 58.3191C318.828 58.3023 319.332 58.1473 319.77 57.87C320.209 57.5928 320.565 57.2035 320.802 56.7424C321.04 56.2813 321.149 55.7651 321.12 55.2473C321.091 54.7295 320.924 54.2289 320.637 53.7973C322.823 51.6016 324.724 50.4262 326.693 48.5881C325.91 52.3369 325.858 53.4593 324.775 56.3378C324.29 56.2438 323.789 56.2734 323.319 56.4241C322.848 56.5748 322.423 56.8416 322.083 57.2C319.715 59.652 321.629 64.7198 325.295 63.3742C325.813 63.1681 326.279 62.8499 326.66 62.4425C327.04 62.0352 327.326 61.5487 327.496 61.0179C327.632 60.487 327.656 59.9339 327.569 59.393C327.482 58.8521 327.284 58.3348 326.989 57.8734C326.793 57.5629 326.547 57.2872 326.261 57.0577C327.051 55.5095 327.683 53.8856 328.147 52.2107C328.814 54.1046 329.72 55.9061 330.841 57.5721C330.673 57.6348 330.511 57.714 330.359 57.8086C329.879 58.1695 329.528 58.6739 329.355 59.2484C329.182 59.823 329.197 60.4377 329.397 61.0032C329.496 61.3188 329.662 61.6094 329.883 61.8554C330.104 62.1013 330.376 62.2969 330.679 62.4289C330.982 62.5608 331.311 62.6261 331.641 62.6203C331.972 62.6145 332.298 62.5377 332.596 62.3951C334.45 61.5916 335.197 60.3054 334.538 58.887C334.302 58.4514 333.956 58.0849 333.534 57.8237C333.113 57.5626 332.631 57.4158 332.136 57.3979C331.127 54.899 329.934 52.4781 328.567 50.1552C328.561 49.9753 330.055 43.0104 330.257 41.0224C334.005 48.229 339.303 48.0985 346.922 49.1098C348.078 49.2705 348.334 47.961 347.5 47.259C345.265 45.404 344.104 41.2812 339.664 39.3012C336.706 38.0554 333.432 37.7646 330.3 38.4694C330.256 36.9211 329.764 35.4189 328.882 34.1452C328.828 34.0831 328.765 34.0281 328.697 33.9814C335.04 26.6312 341.197 19.0873 347.377 11.6326C347.071 13.5241 346.698 15.4879 346.444 17.4377C345.099 19.3846 343.837 21.3887 342.41 23.2684C342.32 23.2715 340.369 22.0972 338.968 25.3168C338.588 26.2002 337.623 28.4443 340.955 29.3014C341.479 29.4354 342.034 29.3706 342.513 29.1197C342.992 28.8688 343.361 28.4494 343.55 27.9423C343.805 27.3539 343.933 26.7176 343.923 26.0761C343.913 25.4345 343.767 24.8025 343.493 24.2221C344.454 23.0687 345.325 21.8884 346.173 20.6588C346.157 21.3592 346.181 22.0599 346.245 22.7576C344.604 23.9241 345.366 27.7904 347.268 28.1258C350.513 28.4956 351.096 26.2344 351.094 25.304C351.007 24.4912 350.626 23.7381 350.024 23.1858C349.421 22.6335 348.638 22.3199 347.82 22.3037C348.094 18.292 349.487 14.2423 348.723 10.336C348.681 10.2674 353.664 4.09419 356.222 1.05535C356.943 0.2103 354.602 -1.55102 353.87 -0.71562C351.54 1.97525 346.919 8.17616 346.169 8.20169C345.119 7.06059 343.979 6.0053 342.76 5.04592C344.417 2.57809 342.208 0.60212 340.667 0.294411C340.171 0.164533 339.652 0.14918 339.149 0.249513C338.646 0.349846 338.173 0.563236 337.765 0.873531C337.427 1.2419 337.198 1.69681 337.104 2.18762C337.009 2.67842 337.053 3.18584 337.229 3.65338C337.865 5.87302 339.789 6.23775 341.783 5.72958L344.869 8.21596C342.49 8.29698 339.458 8.28019 337.681 8.41074C337.538 7.62535 337.155 6.90383 336.584 6.34606C336.013 5.78828 335.282 5.42184 334.494 5.29745C332.356 5.11011 330.489 7.29492 330.468 9.31681C330.445 9.83306 330.542 10.3476 330.753 10.8195C330.964 11.2915 331.281 11.7077 331.681 12.0351C332.081 12.3626 332.552 12.5921 333.056 12.7056C333.56 12.819 334.084 12.8132 334.585 12.6886C335.793 12.0217 336.796 11.0401 337.49 9.84808C340.384 10.1274 343.291 10.2456 346.197 10.2019L342.141 15.0628C333.533 15.8763 325.459 19.4232 317.775 23.247C318.085 19.7044 308.687 11.1293 306.629 16.2023C305.706 18.495 308.929 20.5765 310.444 21.5855C312.113 22.5895 313.834 23.5028 315.6 24.3216C313.266 25.5018 310.934 26.6718 308.606 27.8317C304.425 24.0619 298.178 18.9816 292.885 23.3643C292.781 23.4405 292.697 23.539 292.637 23.6525C292.577 23.766 292.544 23.8915 292.54 24.0197C292.536 24.1478 292.56 24.2753 292.612 24.3925C292.664 24.5097 292.742 24.6137 292.84 24.6966C296.243 27.9527 300.989 28.9517 305.683 29.2621C303.183 30.4779 300.662 31.6644 298.108 32.782C297.14 30.7838 293.27 30.2652 290.814 30.1287ZM287.151 30.9939C286.752 30.7771 286.417 30.4613 286.176 30.077C285.935 29.6926 285.797 29.2526 285.775 28.7995C285.966 27.6423 287.699 26.5327 288.726 27.2882C291.885 29.8621 287.873 31.3495 287.151 30.9939ZM285.463 38.4357C283.285 38.2397 284.489 35.0869 285.424 35.2351C285.796 35.2925 287.263 35.7629 287.088 36.7894C287.082 37.2205 286.91 37.6326 286.607 37.9394C286.304 38.2463 285.894 38.4241 285.463 38.4357ZM290.582 41.8234C290.874 41.9072 291.133 42.0816 291.32 42.3215C291.507 42.5614 291.614 42.8545 291.624 43.1587C291.634 43.4629 291.548 43.7625 291.378 44.0146C291.207 44.2667 290.961 44.4583 290.675 44.5618C290.289 44.6489 289.886 44.6311 289.509 44.5103C289.132 44.3894 288.794 44.1699 288.53 43.8744C288.399 43.6271 288.348 43.3448 288.385 43.0671C288.422 42.7894 288.546 42.5304 288.738 42.3265C289.041 41.8359 289.83 41.779 290.562 41.8241L290.582 41.8234ZM306.859 45.5715C308.766 45.4143 310.683 45.4428 312.585 45.6566C312.695 45.6529 312.805 45.6491 312.917 45.7254C309.343 46.4597 305.658 46.4661 302.082 45.7442C306.238 43.2113 311.328 41.9473 315.325 45.033C312.532 44.4446 309.659 44.3361 306.829 44.712C306.715 44.7159 306.608 44.7649 306.53 44.8482C306.452 44.9316 306.41 45.0424 306.414 45.1564C306.418 45.2704 306.467 45.3781 306.55 45.456C306.634 45.5338 306.745 45.5754 306.859 45.5715ZM281.539 57.7605C280.849 57.2036 282.549 54.8144 283.769 55.3832C283.959 55.468 284.129 55.5937 284.265 55.7513C284.401 55.9089 284.501 56.0945 284.558 56.295C284.614 56.4955 284.626 56.706 284.592 56.9115C284.558 57.117 284.479 57.3126 284.361 57.4842C283.831 58.3628 282.678 59.1725 281.539 57.7605ZM245.443 75.5495C244.454 75.8634 244.003 76.1389 243.295 74.462C243.072 73.2088 243.957 71.5678 245.354 71.7603C245.625 71.823 245.879 71.9414 246.102 72.1079C246.324 72.2744 246.509 72.4853 246.645 72.7273C246.782 72.9693 246.866 73.2369 246.893 73.5133C246.92 73.7897 246.889 74.0687 246.803 74.3325C246.623 74.929 245.453 75.5391 245.443 75.5495ZM236.7 76.7678C235.268 76.4364 235.529 75.2868 235.702 74.4905C236.003 73.0594 238.09 73.5286 238.704 74.4983C239.317 75.468 237.878 76.7077 236.7 76.7678ZM234.985 83.41C234.866 83.1539 234.487 82.5965 234.564 82.2237C234.659 81.7764 234.903 81.375 235.258 81.0862C235.612 80.7975 236.054 80.6387 236.511 80.6365C236.761 80.628 238.224 80.6882 237.805 83.0838C237.714 83.3687 237.542 83.6211 237.31 83.8109C237.079 84.0007 236.798 84.1199 236.5 84.1542C236.203 84.1886 235.902 84.1368 235.633 84.0048C235.365 83.8728 235.14 83.6664 234.985 83.41ZM238.634 89.1992C238.404 89.0507 238.217 88.8447 238.091 88.6015C237.965 88.3583 237.905 88.0864 237.917 87.8128C237.949 86.7111 239.283 85.625 240.25 86.1124C240.62 86.3284 240.934 86.6292 241.166 86.9901C241.397 87.351 241.54 87.7616 241.581 88.1883C241.61 89.0178 240.293 90.3134 238.634 89.1992ZM223.418 104.266C227.849 99.7925 234.439 94.9853 239.571 96.1313C238.18 97.0092 236.627 97.8225 235.308 98.4878C233.744 99.2715 231.677 100.863 230.015 101.119C229.685 101.131 229.733 101.669 230.032 101.629C231.955 101.384 233.797 99.9301 235.52 99.1309C236.643 98.6124 237.845 98.0512 238.995 97.4417C235.635 101.318 228.182 104.874 223.418 104.266ZM253.174 94.2471C253.803 92.7249 254.461 91.2016 255.02 89.6717C255.007 92.8339 253.957 96.3617 251.637 98.4719C250.007 96.1261 252.586 92.246 254.282 89.7568C253.771 91.1851 253.117 92.5681 252.535 93.9688C252.388 94.354 252.998 94.6434 253.174 94.2372L253.174 94.2471ZM262.79 93.3693C263.044 89.3584 264.947 86.2017 267.77 83.3039C266.149 86.8112 265.829 90.6543 262.79 93.3593L262.79 93.3693ZM279.385 87.9313C279.275 88.3442 279.05 88.7172 278.735 89.0062C278.421 89.2953 278.03 89.4884 277.609 89.5627C275.497 89.8447 275.381 88.1777 275.436 87.7456C275.449 87.4577 275.524 87.176 275.656 86.9198C275.787 86.6636 275.973 86.4389 276.2 86.2611C276.427 86.0833 276.689 85.9566 276.969 85.8896C277.25 85.8227 277.541 85.8171 277.824 85.8732C278.078 85.8596 278.332 85.9085 278.563 86.0158C278.795 86.123 278.996 86.2852 279.15 86.4883C279.304 86.6913 279.406 86.929 279.447 87.1806C279.488 87.4321 279.466 87.6899 279.385 87.9313ZM288.59 87.0374C289.585 89.8252 288.658 92.8785 288.888 95.8023C287.807 95.0308 286.95 93.9847 286.408 92.772C285.865 91.5594 285.656 90.2239 285.801 88.9034C286.01 87.8101 286.308 86.7358 286.693 85.6912C287.005 87.3373 287.219 89.0007 287.333 90.6723C287.34 90.8922 287.703 90.9799 287.775 90.7473C288.026 89.5824 288.015 88.3766 287.745 87.2163L287.393 84.5267C287.848 85.3356 288.248 86.1744 288.59 87.0374ZM297.515 77.6581C298.555 78.8034 299.456 80.0034 300.437 81.1707C296.995 80.2874 292.931 78.4847 291.617 75.4676C291.852 75.6998 292.1 75.9315 292.362 76.1627C293.392 77.0382 294.653 77.6356 295.45 78.6991C295.497 78.7591 295.566 78.7985 295.642 78.8092C295.718 78.8199 295.795 78.8011 295.858 78.7567C295.921 78.7123 295.964 78.6457 295.979 78.5704C295.993 78.4952 295.979 78.4171 295.938 78.3522C295.303 77.4781 294.522 76.7195 293.63 76.1095C293.053 75.6042 292.507 75.0648 291.995 74.4942C294.124 74.9352 296.058 76.0434 297.515 77.6581ZM325.6 58.2109C326.098 58.8108 326.343 59.5812 326.283 60.3589C326.202 60.7715 325.995 61.1491 325.692 61.4404C325.389 61.7317 325.003 61.9227 324.588 61.9875C321.881 62.4399 321.898 59.9779 322.729 58.5188C323.069 57.9269 323.407 57.0048 325.6 58.2109ZM333.168 59.2038C334.024 59.9451 332.805 60.8872 331.797 61.2517C331.574 61.3134 331.335 61.2888 331.13 61.1827C330.924 61.0766 330.766 60.8968 330.687 60.6791C330.574 60.4116 330.538 60.1176 330.585 59.8309C330.632 59.5443 330.759 59.2767 330.952 59.0592C331.086 58.8945 331.746 57.9915 333.168 59.2038ZM319.859 55.6548C319.842 55.8838 319.768 56.1051 319.645 56.2993C319.523 56.4935 319.354 56.6547 319.155 56.769C318.956 56.8833 318.732 56.9472 318.502 56.9551C318.272 56.963 318.044 56.9146 317.838 56.8143C316.824 56.4186 316.464 55.8605 316.593 55.2257C316.64 54.8459 316.813 54.4929 317.086 54.224C317.358 53.9551 317.713 53.7859 318.093 53.7438C318.339 53.7359 318.584 53.7808 318.811 53.8754C319.038 53.97 319.242 54.1122 319.409 54.2924C319.576 54.4725 319.703 54.6865 319.781 54.9198C319.858 55.1531 319.885 55.4003 319.859 55.6448L319.859 55.6548ZM340.244 44.5745C338.203 43.4033 336.212 42.2204 334.181 41.0688C333.681 40.7857 333.159 40.4233 332.598 40.1222C335.905 39.8119 339.202 40.8054 341.788 42.891C343.468 44.3546 344.583 46.2377 345.96 47.8718C343.302 47.6988 340.683 47.1374 338.188 46.2054C335.203 44.9163 333.663 42.6073 331.678 40.4237C334.534 41.7472 337.287 43.5345 339.999 45.0131C340.314 45.1624 340.51 44.7355 340.244 44.5745ZM341.549 24.1482C343.017 24.0482 342.971 26.231 342.733 27.1597C342.494 28.0883 339.3 28.5974 339.817 25.8782C339.899 25.4543 340.104 25.064 340.407 24.7564C340.71 24.4488 341.097 24.2376 341.519 24.1492L341.549 24.1482ZM349.954 25.0226C350.169 25.7557 348.13 28.4567 346.894 26.2575C346.525 25.6651 346.381 24.9601 346.486 24.2702C346.722 23.997 347.027 23.7924 347.369 23.6783C347.711 23.5642 348.078 23.5447 348.43 23.6219C348.782 23.6991 349.107 23.8702 349.37 24.1169C349.633 24.3637 349.825 24.677 349.924 25.0236L349.954 25.0226ZM339.245 4.37518C338.79 4.23059 338.478 3.01049 338.483 2.57007C338.449 1.57065 339.445 1.44666 340.188 1.51142C340.931 1.57617 342.326 1.98893 342.077 2.91793C341.994 3.21338 341.851 3.4884 341.656 3.72563C341.461 3.96285 341.219 4.15714 340.946 4.29621C340.672 4.43528 340.373 4.51612 340.066 4.53362C339.76 4.55112 339.453 4.50491 339.166 4.39789L339.245 4.37518ZM331.78 9.36217C331.746 8.96272 331.809 8.56097 331.963 8.19078C332.117 7.8206 332.357 7.49285 332.665 7.23518C332.972 6.97751 333.336 6.79747 333.728 6.71024C334.119 6.62302 334.525 6.63117 334.913 6.73402C335.228 6.85515 335.511 7.04678 335.74 7.29422C335.969 7.54166 336.139 7.83834 336.236 8.16152C336.333 8.48469 336.355 8.82577 336.3 9.15863C336.244 9.49148 336.114 9.80726 335.917 10.0818C335.399 11.02 332.479 12.5502 331.701 9.38488L331.78 9.36217ZM323.26 26.8123C322.83 27.7275 318.715 34.9718 317.433 32.0137C316.795 30.6146 320.272 27.2443 321.082 26.3362L322.267 25.0051C321.387 26.748 320.369 28.4186 319.226 30.0015C319.082 30.1965 319.323 30.5085 319.527 30.3314C320.762 29.1338 321.799 27.7475 322.599 26.2245C323.299 25.03 324.089 23.8324 324.767 22.5886C324.854 22.5156 324.941 22.4226 325.039 22.3492C324.234 23.7074 323.768 25.5843 323.18 26.835L323.26 26.8123ZM309.241 18.2846C308.734 17.7916 307.704 16.9161 308.543 16.3072C309.518 15.5536 311.583 17.4244 312.183 17.9943C313.14 18.8725 314.002 19.8493 314.754 20.9085C313.437 19.8627 312.072 18.8386 310.851 17.6794C310.603 17.4477 310.287 17.8487 310.515 18.0811C311.687 19.3119 312.953 20.6296 314.304 21.7943C312.446 20.8758 310.718 19.7169 309.163 18.3473L309.241 18.2846ZM306.965 30.7893C305.892 32.5496 304.695 34.2321 303.385 35.8241C303.134 36.1028 303.576 36.4579 303.827 36.1892C305.103 34.8651 305.968 33.2347 307.151 31.8336C307.651 31.2362 308.263 30.6851 308.752 30.0681C307.068 33.6673 304.581 36.8326 301.483 39.3209C302.115 37.9085 302.676 36.4686 303.338 35.0253C304.015 33.4944 305.055 32.1508 306.366 31.1099L306.965 30.7893ZM302.809 26.2682C301.171 25.4635 299.514 24.7094 297.849 24.0057C297.777 23.9799 297.697 23.9821 297.626 24.0118C297.555 24.0416 297.497 24.0968 297.465 24.1667C297.432 24.2365 297.427 24.316 297.449 24.3896C297.472 24.4633 297.522 24.5258 297.588 24.5649C299.276 25.3579 300.897 26.2432 302.51 27.1789C299.693 26.8341 297.009 25.779 294.711 24.1126C298.384 21.7962 302.329 24.8037 305.596 27.5841C304.626 27.2243 303.679 26.8054 302.761 26.3298L302.809 26.2682Z" fill="#FFFFE1"/>
<path d="M278.568 66.887C277.514 67.3831 276.439 67.85 275.353 68.2772C276.492 67.9884 277.577 67.5191 278.568 66.887Z" fill="#FFFFE1"/>
</g>
<defs>
<clipPath id="clip0_583_13861">
<rect width="528.7" height="251.15" fill="white" transform="translate(-93 -92)"/>
</clipPath>
</defs>
</svg>
